<svg id="图层_1" data-name="图层 1" xmlns="http://www.w3.org/2000/svg" viewBox="0 0 18 18"><title>icon_link</title><rect width="18" height="18" transform="translate(0 18) rotate(-90)" style="fill:none"/><path d="M6.41,3.58,9.66,6.83A2,2,0,0,1,10,9.24a1,1,0,0,0,1.74,1,4,4,0,0,0-.65-4.8L7.82,2.17A4,4,0,1,0,2.17,7.83l.48.48A1,1,0,0,0,4.06,6.89l-.48-.48A2,2,0,0,1,6.41,3.58Z"/><path d="M15.83,10.18l-.48-.48a1,1,0,0,0-1.41,1.41l.48.48a2,2,0,0,1-2.83,2.83L8.34,11.17A2,2,0,0,1,8,8.76a1,1,0,0,0-1.74-1,4,4,0,0,0,.65,4.8l3.25,3.25a4,4,0,1,0,5.66-5.66Z"/></svg>