<svg id="图层_1" data-name="图层 1" xmlns="http://www.w3.org/2000/svg" viewBox="0 0 72 72"><title>icon_loading_stackBar</title><rect width="72" height="72" style="fill:none"/><path d="M26.08,19.2H2v7.6H26.08a1,1,0,0,0,1-1V20.2A1,1,0,0,0,26.08,19.2ZM25.64,25a.33.33,0,0,1-.33.33H16.62V20.71h8.69a.33.33,0,0,1,.33.33Z" style="fill:#e8e8e8"/><path d="M69,32.2H2v7.6H69a1,1,0,0,0,1-1V33.2A1,1,0,0,0,69,32.2ZM68.51,38a.33.33,0,0,1-.33.33H44.49V33.71H68.18a.33.33,0,0,1,.33.33Z" style="fill:#e8e8e8"/><path d="M46.45,45.2H2v7.6H46.45a1,1,0,0,0,1-1V46.2A1,1,0,0,0,46.45,45.2ZM45.93,51a.33.33,0,0,1-.33.33H29.91V46.71H45.6a.33.33,0,0,1,.33.33Z" style="fill:#e8e8e8"/></svg>