<svg id="图层_1" data-name="图层 1" xmlns="http://www.w3.org/2000/svg" viewBox="0 0 18 18"><title>icon_fullScreen</title><rect width="18" height="18" style="fill:none"/><path d="M5.23,4.32,6.49,3.07a.6.6,0,0,0-.4-1L2.54,1.92a.6.6,0,0,0-.62.62L2,6.08a.6.6,0,0,0,1,.4L4.31,5.24,7.17,8.1a.65.65,0,0,0,.92-.92Z" transform="translate(0)"/><path d="M16,11.92a.6.6,0,0,0-1-.4l-1.25,1.25L10.84,9.93a.65.65,0,0,0-.92.92l2.84,2.84-1.25,1.25a.6.6,0,0,0,.4,1l3.54.12a.6.6,0,0,0,.62-.62Z" transform="translate(0)"/></svg>