<svg id="图层_1" data-name="图层 1" xmlns="http://www.w3.org/2000/svg" viewBox="0 0 72 72"><title>icon_loading_progressbar</title><rect width="72" height="72" style="fill:none"/><path d="M18.31,25.72l-1.68.67a1.79,1.79,0,1,1-1-3.42l3.95-1.46c1.29-.56,2.46,0,2.46,2V39.16c0,2.07-3.7,2.13-3.7,0Z" style="fill:#e8e8e8"/><path d="M34.92,30.81c2.58-2,2.55-6-1.23-6a3.94,3.94,0,0,0-3.19,1.88c-1.12,1.76-4.06.59-2.94-1.93a6.56,6.56,0,0,1,6.13-3.44c6.64,0,9.27,6.83,3.95,12a35.46,35.46,0,0,1-5.43,3.92c1.23,0,2.72-.17,3.95-.17H39.4c2.16,0,2.44,3.61,0,3.61H28.54a1.66,1.66,0,0,1-1.23-2.94C29.83,35,32.21,33.28,34.92,30.81Z" style="fill:#e8e8e8"/><path d="M51.32,24.77H46.54c-2.35,0-2.21-3.5,0-3.5H55.1a1.83,1.83,0,0,1,1.23,3.22l-4.65,4.34a5.53,5.53,0,0,1,6.1,5.43c0,3.44-2.44,6.38-7.56,6.38a6.64,6.64,0,0,1-5.74-2.94c-1.34-2,1.54-3.89,3.05-1.93a3.9,3.9,0,0,0,3.16,1.43c1.71,0,3.39-.73,3.39-2.94,0-2.91-3.56-2.46-5.49-2.27a1.82,1.82,0,0,1-1.68-3.16Z" style="fill:#e8e8e8"/><path d="M58,44.73H14a1,1,0,0,0-1,1v4a1,1,0,0,0,1,1H58a1,1,0,0,0,1-1v-4A1,1,0,0,0,58,44.73Zm0,4.6a.4.4,0,0,1-.4.4H40v-4H57.6a.4.4,0,0,1,.4.4Z" style="fill:#e8e8e8"/></svg>