<svg id="图层_1" data-name="图层 1" xmlns="http://www.w3.org/2000/svg" viewBox="0 0 18 18"><title>icon_logo_MySQL</title><rect width="18" height="18" style="fill:none"/><rect x="2.3" y="2.3" width="13.4" height="13.4" rx="1.67" ry="1.67" style="fill:#00546b"/><path d="M15.28,9.38a12.87,12.87,0,0,0-.8-1.28A12.16,12.16,0,0,0,9.23,4.28,5.84,5.84,0,0,0,7.64,4l-.9.08a4.61,4.61,0,0,1-.61-.34c-.74-.33-2.63-1-3,.28-.22.82.69,1.47,1,1.83a5.61,5.61,0,0,1,.74.81c.11.19.16.4.28.61A14.31,14.31,0,0,0,6,8.78a5.86,5.86,0,0,0,.55.68c.11.12.29.15.36.37a3.41,3.41,0,0,0-.15.93,5.32,5.32,0,0,0,.9,4c.23.27.78.87,1.35.53s.29-1,.37-1.58c0-.15,0-.24,0-.35v0c.21.31.42.61.63.92a6.83,6.83,0,0,0,1.78,1.38l0,0h.18c-.11-.1-.22-.2-.31-.3a15.54,15.54,0,0,1-1.64-2c-.24-.35-.47-.73-.67-1.07-.09-.13-.12-.35-.25-.4a4.43,4.43,0,0,0-.46.89,6.8,6.8,0,0,0-.08,1.85s0,0,0,0c-.4,0-.58-.42-.78-.73A5.23,5.23,0,0,1,7.3,10.8c0-.26.3-1.1.12-1.32S7.06,9.17,6.91,9a4.52,4.52,0,0,1-.53-.7c-.38-.63-.63-1.35-1-2a6.72,6.72,0,0,0-.73-.83,5.87,5.87,0,0,1-.79-.84c-.08-.12-.19-.32-.12-.48A.19.19,0,0,1,3.86,4c.14-.15.6,0,.77,0a6.14,6.14,0,0,1,1.27.43,2.06,2.06,0,0,0,.62.33l.25,0c.4,0,.81-.09,1.19,0a7.83,7.83,0,0,1,1.84.58,10.69,10.69,0,0,1,4.29,3.57c.18.25.28.5.45.76.33.55.73,1.11,1.06,1.64l.11.18V10.06Z" style="fill:#fff"/><path d="M7.41,5.82a2,2,0,0,0-.48.13V6H7a3.73,3.73,0,0,0,.45.44l.35.53,0,0A.68.68,0,0,0,8,6.28,2.66,2.66,0,0,1,7.77,6C7.69,5.94,7.52,5.9,7.41,5.82Z" style="fill:#fff"/></svg>