<svg id="图层_1" data-name="图层 1" xmlns="http://www.w3.org/2000/svg" viewBox="0 0 18 18"><title>btn_member</title><rect width="18" height="18" style="fill:none"/><path d="M14.77,13.9a7.6,7.6,0,0,0-2.61-1.16.6.6,0,0,0-.54.14A4,4,0,0,1,9,13.94a3.45,3.45,0,0,1-1.35-.25,4.17,4.17,0,0,1-1.31-.79.61.61,0,0,0-.54-.14A7.6,7.6,0,0,0,3.23,13.9C2.11,14.69,2,15.14,2,16.09v.78a.5.5,0,0,0,.5.5h13a.5.5,0,0,0,.5-.5v-.78C16,15.14,15.89,14.69,14.77,13.9Z" transform="translate(0)"/><path d="M5.13,9.36l.16-.05A4.64,4.64,0,0,0,8,12.76a2.43,2.43,0,0,0,.92.18H9c1.66,0,3.07-1.4,3.61-3.36l.11-.28a.67.67,0,0,0,.18.06c.48.09,1-.36,1.1-1A1.08,1.08,0,0,0,13.33,7h-.07c.2-1.83,0-4.57-2.06-5.65C9,.17,7.36.48,7.19,1.94c0,0-1.19-.7-2.11,1.14A6.26,6.26,0,0,0,4.78,7H4.67A1.08,1.08,0,0,0,4,8.35C4.16,9,4.65,9.45,5.13,9.36Z" transform="translate(0)"/></svg>