<svg id="图层_1" data-name="图层 1" xmlns="http://www.w3.org/2000/svg" viewBox="0 0 72 72"><title>icon_loading_doubleAxis</title><rect width="72" height="72" style="fill:none"/><path d="M69.48,41.88h-5.6a1,1,0,0,0-1,1V53h7.6V42.88A1,1,0,0,0,69.48,41.88Z" transform="translate(0 -0.03)" style="fill:#e8e8e8"/><path d="M46.13,28.78l4.08-1V20.08a1,1,0,0,0-1-1h-5.6a1,1,0,0,0-1,1V31.47Z" transform="translate(0 -0.03)" style="fill:#e8e8e8"/><polygon points="46.57 29.67 42.61 32.7 42.61 52.95 50.21 52.95 50.21 28.82 46.57 29.67" style="fill:#e8e8e8"/><polygon points="2.09 41.37 2.09 52.95 9.69 52.95 9.69 42.59 2.09 41.37" style="fill:#e8e8e8"/><path d="M2.1,40.39,9.69,41.6v-4a1,1,0,0,0-1-1H3.09a1,1,0,0,0-1,1v2.77Z" transform="translate(0 -0.03)" style="fill:#e8e8e8"/><path d="M26,44.21l4-3.06V28.85a1,1,0,0,0-1-1h-5.6a1,1,0,0,0-1,1V43.64Z" transform="translate(0 -0.03)" style="fill:#e8e8e8"/><polygon points="26.22 45.24 26.01 45.2 22.35 44.62 22.35 52.95 29.95 52.95 29.95 42.38 26.22 45.24" style="fill:#e8e8e8"/><path d="M26.28,44.21l-.21,0L2.6,40.41a.5.5,0,0,1,.16-1L26,43.15,46.19,27.72l23.64-5.51a.5.5,0,1,1,.23,1L46.63,28.64Z" transform="translate(0 -0.03)" style="fill:#e8e8e8"/></svg>