<svg id="图层_1" data-name="图层 1" xmlns="http://www.w3.org/2000/svg" viewBox="0 0 24 24"><title>icon_add_dashboard</title><rect width="24" height="24" style="fill:none"/><path d="M13,19a6,6,0,0,1,7.41-5.83,8.57,8.57,0,1,0-7.24,7.24A6,6,0,0,1,13,19ZM6.92,12a.63.63,0,0,1-1.26,0,6.34,6.34,0,0,1,12.67,0,.63.63,0,0,1-1.26,0A5.08,5.08,0,1,0,6.92,12Zm3.51,3.14A1.57,1.57,0,0,1,12,13.57l.17,0,2-3.53a.63.63,0,1,1,1.09.63l-2,3.53a1.57,1.57,0,1,1-2.83.92Z" transform="translate(0 0)"/><path d="M19,14a5,5,0,1,0,5,5A5,5,0,0,0,19,14Zm2.69,5.65h-2v2a.65.65,0,0,1-1.3,0v-2h-2a.65.65,0,1,1,0-1.3h2v-2a.65.65,0,0,1,1.3,0v2h2a.65.65,0,1,1,0,1.3Z" transform="translate(0 0)"/></svg>