<svg id="图层_1" data-name="图层 1" xmlns="http://www.w3.org/2000/svg" viewBox="0 0 24 24"><title>icon_add_etl</title><rect width="24" height="24" style="fill:none"/><path d="M19.54,8.48a.6.6,0,0,0,.6-.6V4.48a.6.6,0,0,0-.6-.6h-3.4a.6.6,0,0,0-.6.6V7.31L12,10.81a1.21,1.21,0,0,1-.85.35H8.46V8.78a.6.6,0,0,0-1-.44l-3.4,3.18a.6.6,0,0,0,0,.88l3.4,3.18a.6.6,0,0,0,1-.44V12.76h2.73a2.78,2.78,0,0,0,2-.82l3.46-3.46Z" transform="translate(0)"/><path d="M15.4,14.21l-.66-.66a.8.8,0,0,0-1.13,1.13l.65.65A6,6,0,0,1,15.4,14.21Z" transform="translate(0)"/><path d="M19,14a5,5,0,1,0,5,5A5,5,0,0,0,19,14Zm2.69,5.65h-2v2a.65.65,0,0,1-1.3,0v-2h-2a.65.65,0,1,1,0-1.3h2v-2a.65.65,0,0,1,1.3,0v2h2a.65.65,0,1,1,0,1.3Z" transform="translate(0)"/></svg>