<svg id="图层_1" data-name="图层 1" xmlns="http://www.w3.org/2000/svg" viewBox="0 0 18 18"><title>icon_editTitle</title><rect width="18" height="18" style="fill:none"/><path d="M11.85,4.14a.44.44,0,0,0-.63,0L2.86,12.51a1.11,1.11,0,0,0-.3.54L2,15.46a.44.44,0,0,0,.53.53L5,15.44a1.11,1.11,0,0,0,.54-.3l8.37-8.37a.44.44,0,0,0,0-.63Z" transform="translate(0 0)"/><path d="M15.46,2.55h0a1.86,1.86,0,0,0-2.63,0l-.27.27a.44.44,0,0,0,0,.63l2,2a.44.44,0,0,0,.63,0l.27-.27A1.86,1.86,0,0,0,15.46,2.55Z" transform="translate(0 0)"/></svg>