<svg id="图层_1" data-name="图层 1" xmlns="http://www.w3.org/2000/svg" viewBox="0 0 18 18"><title>icon_logo_MailChimp</title><rect width="18" height="18" style="fill:none"/><path d="M16.27,12.37s-1.17,4.48-5.71,4.48a7,7,0,0,1-5.79-3.41A2,2,0,0,1,4,13.31a2.25,2.25,0,0,1-1.31-2.85L2,10C-.44,8.12,6.51-.43,9,1.5L9.55,2A5,5,0,0,1,12,1.15a1.59,1.59,0,0,1,1.21.45c.64.69.41,2-.46,3.34a2.22,2.22,0,0,1,.45.66,1.57,1.57,0,0,1,.55,1c.1.5.12,1.21.18,1.51l.38.18a3.39,3.39,0,0,1,.93.63.8.8,0,0,1,.5,1.27l-.1.12a2.34,2.34,0,0,1,.22.62.82.82,0,0,1,.57.45,1.23,1.23,0,0,1-.18,1" transform="translate(0)" style="fill:#684c46"/><path d="M5.7,10.7h0a4.08,4.08,0,0,0,.15-.46A2.93,2.93,0,0,1,6,11.32,2.2,2.2,0,0,0,6.19,11a1.65,1.65,0,0,1-1.56,2,1.67,1.67,0,0,1,0-3.34,1.52,1.52,0,0,1,.64.14s.34.17.43,1m8.64,3.62a4,4,0,0,0,1.47-2.17c.3-.36.22-.72-.18-.72a.75.75,0,0,0-.22,0,2.1,2.1,0,0,0-.24-.94,4.93,4.93,0,0,1-1.4,1,6.48,6.48,0,0,1-2.58.61h0c-.3,0-.48,0-.59.31a.68.68,0,0,0,.6.84,2.44,2.44,0,0,0,.45.06,6.14,6.14,0,0,0,3.93-1.64l0,0,0,0a5,5,0,0,1-3.93,1.94h0a1.56,1.56,0,0,1-1.19-.44c-.42-.52-.2-1.38.47-1.4h.22a5.49,5.49,0,0,0,4.19-1.92c.15-.18,0-.43-.33-.44h0a3.07,3.07,0,0,0-1-.69c-.61-.31-.56,0-.7-1.56,0-.41-.11-1-.48-1.18a.59.59,0,0,0-.3-.08.52.52,0,0,0-.18,0,.93.93,0,0,0-.45.28c-.66.61-1.19.44-2,.44A1.52,1.52,0,0,0,8.4,8h0a2.56,2.56,0,0,0,0,1,1.61,1.61,0,0,1-.3-.25,2.08,2.08,0,0,0,.78,1.2,1.08,1.08,0,0,1-.25,0,2.8,2.8,0,0,0,.71.4,2.72,2.72,0,0,0-.74,1.07,2.88,2.88,0,0,0-.12,1.21l.18-.27a2.36,2.36,0,0,0,.11,1.18c.08-.17.24-.48.24-.48a2.43,2.43,0,0,0,.29,1.17c0-.12.05-.43.05-.43a2.51,2.51,0,0,0,.59.94c.77.68,2.81.81,4.37-.41" transform="translate(0)" style="fill:#f5dcba"/><path d="M2.89,10a4.66,4.66,0,0,1-.68-.58c-.5-.84.37-2.56,1-3.55C4.71,3.45,7.25,1.54,8.4,1.81l1.18.61a9.62,9.62,0,0,0-1.17.82l-.25.21s-.73.5-1.1.81A11.36,11.36,0,0,0,3.62,9.31a2,2,0,0,0-.73.69" transform="translate(0)" style="fill:#0788bf"/><path d="M8.4,1.81h0C7.25,1.54,4.71,3.45,3.19,5.87h0l1.21,1A11.29,11.29,0,0,1,7.46,3.59L7.27,2.3l.36-.17.72.23L8.3,2.12Z" transform="translate(0)" style="fill:#46b8e3"/><path d="M9.58,2.42l-1.17.82-.08.06-1-.85,0-.16.36-.17.72.23V1.91l0-.1.32-.12.87.73" transform="translate(0)" style="fill:#ffd14f"/><path d="M11.89,1.61a4.9,4.9,0,0,0-2.31.81l-.28.17L9,2.3l.13.44-.14.1-.72-.22L8.7,3l-.29.23L7.27,2.3l.06.42.83.73s-.73.5-1.1.81A11.36,11.36,0,0,0,3.62,9.31l0,0h0l0,0h0l0,0h0l0,0h0l.07,0a2,2,0,0,1,1.44.07A8.94,8.94,0,0,1,6.57,7,5,5,0,0,1,8,5.65c1-.91,3.58-1.88,4.42-1a5.51,5.51,0,0,0,.51-1c.35-.92.36-2-1-2" transform="translate(0)" style="fill:#122030"/><polygon points="8.57 2.43 8.4 1.81 8.3 2.12 8.36 2.36 8.57 2.43" style="fill:#122030"/><path d="M15.41,11.46a2.1,2.1,0,0,0-.24-.94,4.91,4.91,0,0,1-1.4,1,6.46,6.46,0,0,1-2.58.61c-.3,0-.48,0-.59.31a.52.52,0,0,0,0,.1h0s0,0,0,0,0,.06,0,.08h0a.31.31,0,0,0,0,0h0a.25.25,0,0,0,0,.08h0a.7.7,0,0,0,.59.48,2.49,2.49,0,0,0,.45.06,6,6,0,0,0,3.75-1.49,3.38,3.38,0,0,0,0-.35M10.33,2a4.21,4.21,0,0,1,1.31-.39,5.4,5.4,0,0,0-1.58.7A19.38,19.38,0,0,0,7.7,4.2C7.21,4.69,5.26,7,5.26,7A9.33,9.33,0,0,1,6.42,5.31c.32-.4.66-.79,1-1.15l.35-.35A9.61,9.61,0,0,1,10.33,2" transform="translate(0)" style="fill:#fff"/><path d="M14.34,14.32a4.39,4.39,0,0,1-.66.43,2.1,2.1,0,0,1-.84-.62,5.24,5.24,0,0,0,1-.41,5.71,5.71,0,0,0,1.92-1.57,4,4,0,0,1-1.47,2.17M12.93,8.7a.52.52,0,0,0-.76.26c.14,0,.3.12.29.26a.55.55,0,0,1,.39-.15.28.28,0,0,1,.08-.37m-2.64,3.61a.68.68,0,0,1,.65-.54h.22a5.49,5.49,0,0,0,4.19-1.92c.15-.18,0-.43-.33-.44h0c-.05.06-.06.16-.15.31a2.82,2.82,0,0,1-1.36,1.11c-1.82.91-2.77.48-3.15,1a.45.45,0,0,0-.06.44h0m3.3-3.8c-.17-.12-.18-.34-.28-1.35a2.09,2.09,0,0,0-.28-1,.27.27,0,0,0-.18-.08c-.12,0-.27.12-.34.21a1.92,1.92,0,0,1-.82.72,2.49,2.49,0,0,1-1.14.23c-.28,0-.52-.05-.76-.06a1.31,1.31,0,0,0-1.11.49,1.4,1.4,0,0,0-.3.81s0,.07,0,.1v.14a1.32,1.32,0,0,0,0,.23h0V9a1.61,1.61,0,0,1-.3-.25,2,2,0,0,0,.73,1.16l0,0h0a1.08,1.08,0,0,1-.25,0,2.8,2.8,0,0,0,.71.4,2.46,2.46,0,0,1,1.33-.55c.25-.15.51-.3.79-.45a1,1,0,0,1,1-1.12.85.85,0,0,1,.83.38l.29-.09h0m.21,3.59h0a6.38,6.38,0,0,1-3.2.39.7.7,0,0,0,0,.26h0a3.5,3.5,0,0,0,.66.06,4.14,4.14,0,0,0,2.53-.71M5.18,12h0a.45.45,0,0,0,.11-.38c0-.19-.26-.23-.4-.38h0A.32.32,0,0,1,4.8,11a.22.22,0,0,1,.28-.22.37.37,0,0,1,.19.14h0a.46.46,0,0,0-.08-.19.68.68,0,0,0-.71-.23h0l-.09,0h0l-.06,0-.13.08c-.39.51.27,1.44,1,1.38" transform="translate(0)" style="fill:#eabe8d"/><path d="M11,8.83s0,.09,0,.1-.12,0-.27-.07a1.35,1.35,0,0,0-1.1,0A.78.78,0,0,1,9.42,9c-.07,0,0-.13.14-.25a1.08,1.08,0,0,1,1-.18.89.89,0,0,1,.41.29m-.07.37a.65.65,0,0,0-.47-.09l-.11,0h0a.63.63,0,0,0-.21.13c-.08.07-.1.14-.08.16s.07,0,.16,0a1.31,1.31,0,0,1,.65-.1c.09,0,.15,0,.16,0s0,0,0-.08M5.09,10.59h0a.52.52,0,0,1,.1.11c.08.12.06.19.09.22a0,0,0,0,0,0,0s.07-.09.07-.15h0a.52.52,0,0,0-.14-.37h0a.77.77,0,0,0-.21-.17.86.86,0,0,0-.29-.1,1.09,1.09,0,0,0-.42,0h0l-.09,0a1,1,0,0,0-.6.63h0a1.12,1.12,0,0,0,0,.32,1.16,1.16,0,0,0,0,.23h0a.74.74,0,0,0,.16.34h0c.1.11.22.09.17,0a.91.91,0,0,1-.08-.36,1.09,1.09,0,0,1,.06-.42.82.82,0,0,1,.12-.2.73.73,0,0,1,.25-.19l.06,0h0l.09,0h0a.71.71,0,0,1,.6.12M5,11.06A.15.15,0,0,1,5,11a.11.11,0,0,1,0-.14s.08,0,.08-.06-.14-.07-.24,0a.31.31,0,0,0,0,.41c.15.16.37.19.41.39a.35.35,0,0,1,0,.09.54.54,0,0,1,0,.09.44.44,0,0,1-.52.32c-.05,0-.09,0-.1,0s.11.18.34.17a.58.58,0,0,0,.53-.43.61.61,0,0,0,0-.14.54.54,0,0,0,0-.15c-.06-.33-.39-.4-.51-.5M13,8.7c-.09,0-.18.07-.2.2s0,.24.13.25.18-.07.2-.2,0-.24-.13-.25m-1,.36a.27.27,0,0,0,.45.25A.27.27,0,0,0,12,9.06M8.37,5.4c1.71-1.11,3.42-1.24,4-.79h0v0a1.29,1.29,0,0,0-.8-.62,1.11,1.11,0,0,1,.16.22,2.47,2.47,0,0,0-.87-.37l0,0a.84.84,0,0,1,.18.24,1.94,1.94,0,0,0-1-.13h0a.71.71,0,0,1,.34.19,2.49,2.49,0,0,0-1.49.19H9a1.2,1.2,0,0,1,.47.08,2.78,2.78,0,0,0-1.13.46,2.28,2.28,0,0,1,.43,0A6,6,0,0,0,6.57,7,7.1,7.1,0,0,1,8.37,5.4" transform="translate(0)" style="fill:#9c7356"/><path d="M12.41,7.82c0-.12,0-.31.13-.35h0c.19-.07.44.42.45.85a1,1,0,0,0-.51-.09,1.49,1.49,0,0,1-.07-.41" transform="translate(0)" style="fill:#684c46"/></svg>