<svg id="图层_1" data-name="图层 1" xmlns="http://www.w3.org/2000/svg" viewBox="0 0 18 18"><title>icon_table</title><rect width="18" height="18" style="fill:none"/><rect x="1" y="5.25" width="4.66" height="3.24" rx="0.6" ry="0.6"/><rect x="1" y="9.51" width="4.66" height="3.24" rx="0.6" ry="0.6"/><rect x="1" y="13.76" width="4.66" height="3.24" rx="0.6" ry="0.6"/><rect x="6.67" y="5.25" width="4.66" height="3.24" rx="0.6" ry="0.6"/><rect x="6.67" y="9.51" width="4.66" height="3.24" rx="0.6" ry="0.6"/><rect x="6.67" y="13.76" width="4.66" height="3.24" rx="0.6" ry="0.6"/><rect x="12.34" y="5.25" width="4.66" height="3.24" rx="0.6" ry="0.6"/><rect x="12.34" y="9.51" width="4.66" height="3.24" rx="0.6" ry="0.6"/><rect x="12.34" y="13.76" width="4.66" height="3.24" rx="0.6" ry="0.6"/><rect x="1" y="1" width="16" height="3.24" rx="0.6" ry="0.6"/></svg>