<svg id="图层_1" data-name="图层 1" xmlns="http://www.w3.org/2000/svg" viewBox="0 0 24 24"><title>icon_add_headmap</title><rect width="24" height="24" transform="translate(24 0) rotate(90)" style="fill:none"/><ellipse cx="16.94" cy="6.65" rx="2.56" ry="2.58"/><ellipse cx="9.74" cy="8.24" rx="1.57" ry="1.59"/><ellipse cx="12.45" cy="13.19" rx="2.03" ry="2.06"/><ellipse cx="6.41" cy="17.93" rx="1.91" ry="1.93"/><ellipse cx="6.66" cy="12.95" rx="1.23" ry="1.25"/><path d="M17.73,13.14A6,6,0,0,1,19,13h.07a1.11,1.11,0,1,0-1.88-.8A1.11,1.11,0,0,0,17.73,13.14Z" transform="translate(0 0)"/><path d="M19,14a5,5,0,1,0,5,5A5,5,0,0,0,19,14Zm2.69,5.65h-2v2a.65.65,0,0,1-1.3,0v-2h-2a.65.65,0,1,1,0-1.3h2v-2a.65.65,0,0,1,1.3,0v2h2a.65.65,0,1,1,0,1.3Z" transform="translate(0 0)"/></svg>