<svg id="图层_1" data-name="图层 1" xmlns="http://www.w3.org/2000/svg" viewBox="0 0 18 18"><title>icon_richText</title><rect width="18" height="18" style="fill:none"/><rect x="1" y="6.92" width="6.03" height="10.08" rx="0.6" ry="0.6"/><path d="M16.28,11.39H8.63a.6.6,0,0,0,0,1.2h7.65a.6.6,0,1,0,0-1.2Z" transform="translate(0)"/><path d="M16.28,9.19H8.63a.6.6,0,0,0,0,1.2h7.65a.6.6,0,1,0,0-1.2Z" transform="translate(0)"/><path d="M16.28,7H8.63a.6.6,0,0,0,0,1.2h7.65a.6.6,0,1,0,0-1.2Z" transform="translate(0)"/><path d="M16.28,13.6H8.63a.6.6,0,0,0,0,1.2h7.65a.6.6,0,1,0,0-1.2Z" transform="translate(0)"/><path d="M16.28,15.8H8.63a.6.6,0,0,0,0,1.2h7.65a.6.6,0,1,0,0-1.2Z" transform="translate(0)"/><rect x="1" y="1" width="16" height="4.99" rx="0.6" ry="0.6"/></svg>