<svg id="图层_1" data-name="图层 1" xmlns="http://www.w3.org/2000/svg" viewBox="0 0 72 72"><title>icon_loading_pie</title><rect width="72" height="72" style="fill:none"/><path d="M33.8,37.14l3.08-18.48A1,1,0,0,0,36,17.5a20.68,20.68,0,0,0-7.89.58A21.26,21.26,0,1,0,54.41,42.8a21.2,21.2,0,0,0,.06-8.06A1,1,0,0,0,53.25,34L35,38.28A1,1,0,0,1,33.8,37.14Z" transform="translate(0 0)" style="fill:#e8e8e8"/><path d="M39,34.28l19.92-4.7a1,1,0,0,0,.74-1.23A23,23,0,0,0,42.34,12.13a1,1,0,0,0-1.18.82L37.8,33.14A1,1,0,0,0,39,34.28Z" transform="translate(0 0)" style="fill:#e8e8e8"/></svg>