<svg id="图层_1" data-name="图层 1" xmlns="http://www.w3.org/2000/svg" viewBox="0 0 18 18"><title>btn_keep</title><rect width="18" height="18" transform="translate(0 18) rotate(-90)" style="fill:none"/><path d="M16.24,15.36a.42.42,0,0,0-.08-.11l-3.4-3.4L16,8.64a.41.41,0,0,0,0-.58,4.78,4.78,0,0,0-4.62-1.24A.39.39,0,0,1,11,6.77L7.73,4.28a.39.39,0,0,1-.09-.51,2.08,2.08,0,0,0-.71-2.72,2.14,2.14,0,0,0-2.67.34L1.72,3.93C.66,5,.53,6.3,1.27,7.15a2.09,2.09,0,0,0,2.43.53.41.41,0,0,1,.51.11L6.7,11.07a.41.41,0,0,1,.07.35A4.78,4.78,0,0,0,8,16a.41.41,0,0,0,.58,0l3.21-3.21,3.4,3.4.11.08,1.9,1Z" transform="translate(0 0)"/></svg>