<svg id="图层_1" data-name="图层 1" xmlns="http://www.w3.org/2000/svg" viewBox="0 0 18 18"><title>icon_logo_PostgreSQL</title><rect width="18" height="18" style="fill:none"/><path d="M1.5,3.62" style="fill:none;stroke:#fff;stroke-linecap:round;stroke-linejoin:round;stroke-width:3px"/><path d="M8,6.12a.62.62,0,0,0-.48-.54l-.24,0a2.8,2.8,0,0,0-1.44.52h0a10.22,10.22,0,0,1,0,2.14,1.9,1.9,0,0,0,.5,1.6,1.58,1.58,0,0,0,1.06.5c.05-.18.12-.38.2-.58l0-.12c0-.12.1-.24.16-.37A4.29,4.29,0,0,0,8,6.12Zm-.88.57H7a.65.65,0,0,1-.41-.25.38.38,0,0,1-.09-.27c0-.16.19-.26.44-.26H7.1c.33,0,.53.21.5.4A.54.54,0,0,1,7.08,6.7Z" style="fill:#0085b0"/><path d="M13,2.85A5.22,5.22,0,0,1,14.23,5.1v.12a4.52,4.52,0,0,1-.07.94,6.19,6.19,0,0,0-.08.72,5.5,5.5,0,0,0,.06.79,4.36,4.36,0,0,1,0,1.76C15.64,6.67,16.17,3.65,15.66,3a3.93,3.93,0,0,0-3.17-1.5h-.13a5.91,5.91,0,0,0-.93.07A5.45,5.45,0,0,1,13,2.85Z" style="fill:#0085b0"/><path d="M5.1,8.12a9.59,9.59,0,0,0,.05-1.93V5.94A6.06,6.06,0,0,1,6.42,2.07a7.62,7.62,0,0,0-2.12-.35,3,3,0,0,0-1.77.47,3.18,3.18,0,0,0-1,2.94,21.22,21.22,0,0,0,.81,3.73c.56,1.84,1.21,3,1.73,3.21l.11,0a.74.74,0,0,0,.5-.33c.49-.59,1-1.11,1.22-1.38l-.1-.09A2.6,2.6,0,0,1,5.1,8.12Z" style="fill:#0085b0"/><path d="M12.74,9.55c0-.06-.1-.19-.18-.34C12,8.28,11,6.39,11.69,5.38a1.68,1.68,0,0,1,1.47-.59h.27a5.38,5.38,0,0,0-.89-1.46A4.51,4.51,0,0,0,9.09,1.68h0A2.79,2.79,0,0,0,7,2.47,4.72,4.72,0,0,0,5.88,5.22,3.55,3.55,0,0,1,7,4.87h.24A1.31,1.31,0,0,1,8.64,6a4.92,4.92,0,0,1-.26,3.55l-.14.33c-.09.23-.15.41-.19.56H8a.94.94,0,0,1,.37.09,1.08,1.08,0,0,1,.59.7l0,.25a19.55,19.55,0,0,0,.17,4.13c.19.47.46.91,1.12.91a2.08,2.08,0,0,0,.44-.05c1-.21,1.31-.54,1.47-1.48.13-.77.34-2.92.37-3.33.12-.8.43-1.07.69-1.17l0,0A3.45,3.45,0,0,1,12.74,9.55Z" style="fill:#0085b0"/><path d="M13.38,9.3a3.49,3.49,0,0,0,.06-1.52,5.87,5.87,0,0,1-.06-.91,6.09,6.09,0,0,1,.08-.8,5.1,5.1,0,0,0,.06-.56l-.39,0a1,1,0,0,0-.88.29c-.46.65.52,2.41.89,3.08.12.21.19.35.23.43Zm-.16-3a.58.58,0,0,1-.34.18h-.07a.5.5,0,0,1-.48-.34c0-.21.23-.33.47-.36h.14c.23,0,.38.08.4.22A.39.39,0,0,1,13.22,6.26Z" style="fill:#0085b0"/><path d="M6.57,12.72a2.9,2.9,0,0,1-.69-.09,1.19,1.19,0,0,1-.38-.17l-.29-.2.11-.05c.09,0,.54-.18.7-.24a2.66,2.66,0,0,0,1.05-.57c.08-.08.15-.18.26-.31a.49.49,0,0,1,.36-.2.57.57,0,0,1,.23.06.69.69,0,0,1,.36.45.54.54,0,0,1-.06.47A1.92,1.92,0,0,1,6.57,12.72Z" style="fill:#0085b0"/><path d="M14.3,12a1.12,1.12,0,0,1-.67-.15l-.06-.06v-.09a.8.8,0,0,1,.5-.87l.09,0,.17,0a1.25,1.25,0,0,0,.79.22,8.1,8.1,0,0,0,1.37-.15h0l-.16.23a3,3,0,0,1-.75.58,3,3,0,0,1-1.13.26Z" style="fill:#0085b0"/></svg>