<svg id="图层_1" data-name="图层 1" xmlns="http://www.w3.org/2000/svg" viewBox="0 0 18 18"><title>icon_descending</title><rect width="18" height="18" style="fill:none;stroke:#efefef;stroke-miterlimit:10;stroke-width:0px"/><path d="M5.43,1.18a.65.65,0,0,0-.65.65v9.5H1.47a.6.6,0,0,0-.44,1l4,4.28a.6.6,0,0,0,1-.41V1.83A.65.65,0,0,0,5.43,1.18Z" transform="translate(0 0)"/><rect x="7.57" y="1.18" width="9.56" height="3" rx="1" ry="1"/><rect x="7.57" y="5.27" width="8.05" height="3" rx="1" ry="1"/><rect x="7.57" y="13.44" width="4.16" height="3" rx="1" ry="1"/><rect x="7.57" y="9.36" width="6.06" height="3" rx="1" ry="1"/></svg>