<svg id="图层_1" data-name="图层 1" xmlns="http://www.w3.org/2000/svg" viewBox="0 0 18 18"><title>icon_addDashBoard</title><rect width="18" height="18" style="fill:none"/><path d="M13,5.87h2.85L11,1V3.87A2,2,0,0,0,13,5.87Z" transform="translate(0 -0.02)"/><path d="M15.85,7H13a6,6,0,0,1,2.8.72Z" transform="translate(0 -0.02)"/><path d="M5.34,14.87a.65.65,0,0,1,0-1.3H7c0-.18,0-.37,0-.56a6,6,0,0,1,.11-1.14H5.34a.65.65,0,0,1,0-1.3H7.52a6,6,0,0,1,1.15-1.7H5.34a.65.65,0,0,1,0-1.3H8.66a.65.65,0,0,1,.65.65.61.61,0,0,1,0,.08A6,6,0,0,1,13,7,3.15,3.15,0,0,1,9.85,3.87V1H4.15a2,2,0,0,0-2,2V15a2,2,0,0,0,2,2H8.54a6,6,0,0,1-1.24-2.15Z" transform="translate(0 -0.02)"/><path d="M13,8a5,5,0,1,0,5,5A5,5,0,0,0,13,8Zm2.69,5.65h-2v2a.65.65,0,0,1-1.3,0v-2h-2a.65.65,0,1,1,0-1.3h2v-2a.65.65,0,0,1,1.3,0v2h2a.65.65,0,1,1,0,1.3Z" transform="translate(0 -0.02)"/></svg>