<svg id="图层_1" data-name="图层 1" xmlns="http://www.w3.org/2000/svg" viewBox="0 0 18 18"><title>icon_logo_BigQuery</title><rect width="18" height="18" style="fill:none"/><path d="M6,16a1.91,1.91,0,0,1-1.5-.85l-3-5.29a1.9,1.9,0,0,1,0-1.71l3-5.29A1.92,1.92,0,0,1,6,2H12a1.92,1.92,0,0,1,1.5.85l3,5.29a1.89,1.89,0,0,1,0,1.71l-3,5.29A1.91,1.91,0,0,1,12,16Z" style="fill:#4386fa"/><path d="M15.63,11.5,11.18,7.06h0a2.9,2.9,0,1,0-4.1,4.1h0L11.87,16H12a1.91,1.91,0,0,0,1.5-.85Z" style="fill:#407be0"/><path d="M9,11.92A2.92,2.92,0,1,1,11.92,9,2.92,2.92,0,0,1,9,11.92Zm0-5A2.11,2.11,0,1,0,11.11,9,2.11,2.11,0,0,0,9,6.89Z" style="fill:#fff"/><rect x="11.01" y="10.13" width="0.78" height="2.39" rx="0.2" ry="0.2" transform="translate(-4.67 11.38) rotate(-45.02)" style="fill:#fff"/><path d="M8.71,8.07v2.36a1.46,1.46,0,0,0,.58,0V8.07Z" style="fill:#fff"/><path d="M10.37,9.48V9H9.79v1.22A1.46,1.46,0,0,0,10.37,9.48Z" style="fill:#fff"/><path d="M7.63,8.64v.85a1.46,1.46,0,0,0,.58.74V8.64Z" style="fill:#fff"/></svg>