<svg id="图层_1" data-name="图层 1" xmlns="http://www.w3.org/2000/svg" viewBox="0 0 24 24"><title>icon_add_connect</title><rect width="24" height="24" transform="translate(0 24) rotate(-90)" style="fill:none"/><path d="M15.34,5.72l-1-1a.6.6,0,0,0-.85,0L11.77,6.39,9.19,3.81a.78.78,0,1,0-1.1,1.1l2.58,2.58L7.49,10.68,4.91,8.09a.78.78,0,0,0-1.1,1.1l2.58,2.58L4.7,13.47a.6.6,0,0,0,0,.85l1,1a.6.6,0,0,0,.85,0l8.77-8.77A.6.6,0,0,0,15.34,5.72Z" transform="translate(0)"/><path d="M18.6,13a5,5,0,0,0-1.43-3.87l-.8-.8a.6.6,0,0,0-.85,0L8.35,15.52a.6.6,0,0,0,0,.85l.8.8A5,5,0,0,0,13,18.6,6,6,0,0,1,18.6,13Z" transform="translate(0)"/><path d="M19,14a5,5,0,1,0,5,5A5,5,0,0,0,19,14Zm2.69,5.65h-2v2a.65.65,0,0,1-1.3,0v-2h-2a.65.65,0,1,1,0-1.3h2v-2a.65.65,0,0,1,1.3,0v2h2a.65.65,0,1,1,0,1.3Z" transform="translate(0)"/></svg>