<svg id="图层_1" data-name="图层 1" xmlns="http://www.w3.org/2000/svg" xmlns:xlink="http://www.w3.org/1999/xlink" viewBox="0 0 18 18"><defs><linearGradient id="未命名的渐变_10" x1="-337.92" y1="258.17" x2="-337.87" y2="258.17" gradientTransform="matrix(89.89, 0, 0, -67.4, 30386.91, 17412.22)" gradientUnits="userSpaceOnUse"><stop offset="0" stop-color="#4284f0"/><stop offset="1" stop-color="#4487f4"/></linearGradient><linearGradient id="未命名的渐变_9" x1="-338.44" y1="258.99" x2="-338.43" y2="259.02" gradientTransform="matrix(221.6, 0, 0, -252, 75004, 65280)" gradientUnits="userSpaceOnUse"><stop offset="0" stop-color="#f5b406"/><stop offset="1" stop-color="#f4b913"/></linearGradient></defs><title>icon_logo_Adsense</title><rect width="18" height="18" style="fill:none"/><path d="M16,10.58,13.51,16H7.57l3.25-7H15a1.12,1.12,0,0,1,1,1.58Z" style="fill:#437de6"/><path d="M15,9.1a1,1,0,0,1,.92,1.44l-2.45,5.36H7.85L11,9.1ZM15,9h-4L7.69,16h5.82L16,10.58A1.11,1.11,0,0,0,15,9Z" style="fill:#196cea"/><path d="M11,9.1a36.65,36.65,0,0,0,3.85,3.73l1-2.22a1,1,0,0,0-.95-1.51Z" style="fill:url(#未命名的渐变_10)"/><path d="M8.16,2.62,1.9,16H7.69l3.36-7.23L14.19,2H9.11a1,1,0,0,0-.95.6Z" style="fill:url(#未命名的渐变_9)"/><path d="M14,2.11,11,8.72,7.63,15.89H2.06L8.25,2.65a1,1,0,0,1,.86-.55H14Zm.16-.1H9.11a1,1,0,0,0-.95.6L1.9,16H7.69l3.36-7.23L14.19,2Z" style="fill:#f3aa00"/></svg>