<svg id="图层_1" data-name="图层 1" xmlns="http://www.w3.org/2000/svg" viewBox="0 0 72 72"><title>icon_loading_stackColumn</title><rect width="72" height="72" style="fill:none"/><path d="M8.4,36.58H2.8a1,1,0,0,0-1,1V53H9.4V37.58A1,1,0,0,0,8.4,36.58ZM7.9,45H3.31V38.35A.33.33,0,0,1,3.64,38H7.57a.33.33,0,0,1,.33.33Z" style="fill:#e8e8e8"/><path d="M23.6,27.82H18a1,1,0,0,0-1,1V53h7.6V28.82A1,1,0,0,0,23.6,27.82Zm-.5,13.52H18.51V29.64a.33.33,0,0,1,.33-.33h3.93a.33.33,0,0,1,.33.33Z" style="fill:#e8e8e8"/><path d="M38.8,19H33.2a1,1,0,0,0-1,1V53h7.6V20A1,1,0,0,0,38.8,19Zm-.5,15.53H33.71V20.89a.33.33,0,0,1,.33-.33H38a.33.33,0,0,1,.33.33Z" style="fill:#e8e8e8"/><path d="M54,31.32H48.4a1,1,0,0,0-1,1V53H55V32.32A1,1,0,0,0,54,31.32Zm-.5,8.51H48.9V33.14a.33.33,0,0,1,.33-.33h3.93a.33.33,0,0,1,.33.33Z" style="fill:#e8e8e8"/><path d="M69.2,41.85H63.6a1,1,0,0,0-1,1V53h7.6V42.85A1,1,0,0,0,69.2,41.85Zm-.5,5.45H64.1V43.61a.33.33,0,0,1,.33-.33h3.93a.33.33,0,0,1,.33.33Z" style="fill:#e8e8e8"/></svg>