<svg id="图层_1" data-name="图层 1" xmlns="http://www.w3.org/2000/svg" viewBox="0 0 18 18"><title>icon_stackColumn</title><rect width="18" height="18" style="fill:none"/><path d="M4.85,5H1.55a.6.6,0,0,0-.6.6V16.4a.6.6,0,0,0,.6.6h3.3a.6.6,0,0,0,.6-.6V5.6A.6.6,0,0,0,4.85,5Zm-.6,5.71H2.15V6.41a.2.2,0,0,1,.2-.2h1.7a.2.2,0,0,1,.2.2Z" transform="translate(0 0)"/><path d="M10.65,1H7.35a.6.6,0,0,0-.6.6V16.4a.6.6,0,0,0,.6.6h3.3a.6.6,0,0,0,.6-.6V1.6A.6.6,0,0,0,10.65,1Zm-.6,5.69H8V2.39a.2.2,0,0,1,.2-.2h1.7a.2.2,0,0,1,.2.2Z" transform="translate(0 0)"/><path d="M16.45,7h-3.3a.6.6,0,0,0-.6.6v8.8a.6.6,0,0,0,.6.6h3.3a.6.6,0,0,0,.6-.6V7.6A.6.6,0,0,0,16.45,7Zm-.6,3.68h-2.1V8.38a.2.2,0,0,1,.2-.2h1.7a.2.2,0,0,1,.2.2Z" transform="translate(0 0)"/></svg>