<svg id="图层_1" data-name="图层 1" xmlns="http://www.w3.org/2000/svg" viewBox="0 0 24 24"><title>icon_add_richtext</title><rect width="24" height="24" style="fill:none"/><rect x="3.95" y="9.92" width="6.03" height="10.08" rx="0.6" ry="0.6"/><path d="M19.22,10H11.57a.6.6,0,1,0,0,1.2h7.65a.6.6,0,0,0,0-1.2Z"/><rect x="3.94" y="4" width="16" height="4.99" rx="0.6" ry="0.6"/><path d="M13,18.8H11.57a.6.6,0,0,0,0,1.2h1.49A6,6,0,0,1,13,19C13,18.93,13,18.86,13,18.8Z"/><path d="M19,13a6,6,0,0,1,.78.06.59.59,0,0,0,.07-.26.6.6,0,0,0-.6-.6H11.57a.6.6,0,0,0,0,1.2h5.28A6,6,0,0,1,19,13Z"/><path d="M11,15a.6.6,0,0,0,.6.6H14a6,6,0,0,1,1.09-1.2H11.57A.6.6,0,0,0,11,15Z"/><path d="M11,17.2a.6.6,0,0,0,.6.6h1.52a6,6,0,0,1,.38-1.2H11.57A.6.6,0,0,0,11,17.2Z"/><path d="M19,14a5,5,0,1,0,5,5A5,5,0,0,0,19,14Zm2.69,5.65h-2v2a.65.65,0,0,1-1.3,0v-2h-2a.65.65,0,1,1,0-1.3h2v-2a.65.65,0,0,1,1.3,0v2h2a.65.65,0,1,1,0,1.3Z"/></svg>