<svg id="图层_1" data-name="图层 1" xmlns="http://www.w3.org/2000/svg" viewBox="0 0 18 18"><title>icon_logo_S3</title><rect width="18" height="18" style="fill:none"/><path d="M3.49,4.1l-1.06.5v8.78l1.06.5h0V4.11h0" style="fill:#8c3123"/><path d="M9,12.6,3.49,13.87V4.1L9,5.35V12.6" style="fill:#e05243"/><path d="M6.6,10.61,9,10.9l0,0V7.14l0,0L6.6,7.4v3.21" style="fill:#8c3123"/><path d="M9,12.62l5.51,1.26h0V4.11h0L9,5.36v7.25" style="fill:#8c3123"/><path d="M11.4,10.61,9,10.9V7.11l2.4.28v3.21" style="fill:#e05243"/><path d="M11.4,5.85,9,6.26,6.6,5.85,9,5.25l2.4.59" style="fill:#5e1f18"/><path d="M11.4,12.15,9,11.74l-2.4.42,2.4.63,2.4-.63" style="fill:#f2b0a9"/><path d="M6.6,5.85,9,5.28H9V1.52l0,0L6.6,2.63V5.85" style="fill:#8c3123"/><path d="M11.4,5.85,9,5.28V1.5l2.4,1.13V5.85" style="fill:#e05243"/><path d="M9,16.5,6.6,15.37V12.15l2.4.56,0,0v3.68l0,.07" style="fill:#8c3123"/><path d="M9,16.5l2.4-1.13V12.15L9,12.72V16.5" style="fill:#e05243"/><path d="M14.51,4.1l1.06.5v8.78l-1.06.5V4.1" style="fill:#e05243"/></svg>