<svg id="图层_1" data-name="图层 1" xmlns="http://www.w3.org/2000/svg" viewBox="0 0 18 18"><title>icon_area</title><rect width="18" height="18" style="fill:none"/><path d="M16.69,5.41,12.22,7.56a1,1,0,0,1-.91,0L6,4.67a1,1,0,0,0-.92,0L1,6.68A.4.4,0,0,0,.74,7v7.51a.4.4,0,0,0,.4.4H16.86a.4.4,0,0,0,.4-.4V5.77A.4.4,0,0,0,16.69,5.41Z" transform="translate(0 0)"/><path d="M11.35,5.85,9.69,4.93a.4.4,0,0,1,0-.7L11.6,3.18a1,1,0,0,1,1,0l1.64,1a.4.4,0,0,1,0,.7l-1.93,1A1,1,0,0,1,11.35,5.85Z" transform="translate(0 0)"/></svg>