<svg id="图层_1" data-name="图层 1" xmlns="http://www.w3.org/2000/svg" viewBox="0 0 18 18"><title>icon_add_date</title><rect width="18" height="18" style="fill:none"/><path d="M7,13A6,6,0,0,1,8.94,8.59a.4.4,0,0,0-.26-.7H.75V15.7a2,2,0,0,0,2,2H8.27A.4.4,0,0,0,8.56,17,6,6,0,0,1,7,13Z" transform="translate(0 0)"/><path d="M15.25,2.63h-1V1.41a1.11,1.11,0,1,0-2.21,0V2.63H6V1.41a1.11,1.11,0,1,0-2.21,0V2.63h-1a2,2,0,0,0-2,2v1.8h16.5V4.63A2,2,0,0,0,15.25,2.63Z" transform="translate(0 0)"/><path d="M13,8a5,5,0,1,0,5,5A5,5,0,0,0,13,8Zm2.69,5.65h-2v2a.65.65,0,0,1-1.3,0v-2h-2a.65.65,0,1,1,0-1.3h2v-2a.65.65,0,0,1,1.3,0v2h2a.65.65,0,1,1,0,1.3Z" transform="translate(0 0)"/></svg>