<svg id="图层_1" data-name="图层 1" xmlns="http://www.w3.org/2000/svg" viewBox="0 0 18 18"><title>icon_logo_ PayPal</title><rect width="18" height="18" style="fill:none"/><path id="_路径_" data-name="&lt;路径&gt;" d="M13.22,3A4.37,4.37,0,0,0,9.86,1.92H5.46a.63.63,0,0,0-.62.53L3,14.07a.38.38,0,0,0,.37.44H6.09l.68-4.33,0,.14a.63.63,0,0,1,.62-.53H8.67c2.54,0,4.52-1,5.1-4,0-.09,0-.17,0-.26A2.81,2.81,0,0,0,13.22,3" transform="translate(0 0)" style="fill:#003087"/><path id="_路径_2" data-name="&lt;路径&gt;" d="M13.22,3A4.37,4.37,0,0,0,9.86,1.92H5.46a.63.63,0,0,0-.62.53L3,14.07a.38.38,0,0,0,.37.44H6.09l.68-4.33,0,.14a.63.63,0,0,1,.62-.53H8.67c2.54,0,4.52-1,5.1-4,0-.09,0-.17,0-.26A2.81,2.81,0,0,0,13.22,3" transform="translate(0 0)" style="fill:#003087"/><path id="_路径_3" data-name="&lt;路径&gt;" d="M7.51,5.53a.55.55,0,0,1,.31-.41.56.56,0,0,1,.24-.05H11.5a7.29,7.29,0,0,1,1.14.08l.29.06.27.07.13,0a3.14,3.14,0,0,1,.48.2A2.81,2.81,0,0,0,13.22,3,4.37,4.37,0,0,0,9.86,1.92H5.46a.63.63,0,0,0-.62.53L3,14.07a.38.38,0,0,0,.37.44H6.1l.68-4.33Z" transform="translate(0 0)" style="fill:#003087"/><path id="_路径_4" data-name="&lt;路径&gt;" d="M13.81,5.52h0c0,.08,0,.17,0,.26-.58,3-2.57,4-5.1,4H7.38a.63.63,0,0,0-.62.53L6.1,14.51,5.91,15.7a.33.33,0,0,0,.33.38H8.52a.55.55,0,0,0,.54-.46l0-.12.43-2.74,0-.15a.55.55,0,0,1,.54-.46h.34c2.22,0,4-.9,4.46-3.51A3,3,0,0,0,14.44,6a2.2,2.2,0,0,0-.63-.48" transform="translate(0 0)" style="fill:#009cde"/><path id="_路径_5" data-name="&lt;路径&gt;" d="M13.21,5.28l-.27-.07-.29-.05a7.09,7.09,0,0,0-1.14-.08H8.05a.54.54,0,0,0-.24.05.55.55,0,0,0-.31.41l-.73,4.65,0,.14a.63.63,0,0,1,.62-.53H8.67c2.54,0,4.52-1,5.1-4,0-.09,0-.17,0-.26a3.06,3.06,0,0,0-.48-.2l-.13,0" transform="translate(0 0)" style="fill:#012169"/></svg>