<svg id="图层_1" data-name="图层 1" xmlns="http://www.w3.org/2000/svg" viewBox="0 0 18 18"><title>icon_logo_Excel</title><rect width="18" height="18" style="fill:none"/><rect x="12.38" y="9.42" width="1.69" height="1.05" style="fill:#207245"/><rect x="12.38" y="7.52" width="1.69" height="1.05" style="fill:#207245"/><rect x="12.38" y="11.32" width="1.69" height="1.05" style="fill:#207245"/><rect x="12.38" y="5.63" width="1.69" height="1.05" style="fill:#207245"/><path d="M15.34,3.5H10.69V2.25H9L2.25,3.51v11L9,15.75h1.69V14.34h4.68a.36.36,0,0,0,.38-.38v-10C15.75,3.59,15.67,3.5,15.34,3.5ZM7.46,12.28,6.39,9.72l-1,2.42-1.41,0L5.59,9,4.08,5.9l1.41-.08.93,2.4L7.49,5.71l1.46-.08L7.22,9,9,12.38Zm7.45-6.66v7.59H10.69v-.84h.84V11.32h-.84v-.84h.84V9.42h-.84V8.58h.84V7.52h-.84V6.68h.84V5.63h-.84V4.78h4.22Z" transform="translate(0)" style="fill:#207245"/></svg>