<svg id="图层_1" data-name="图层 1" xmlns="http://www.w3.org/2000/svg" viewBox="0 0 18 18"><title>icon_doubleAxis</title><rect width="18" height="18" style="fill:none"/><path d="M10.1,13.91V16.4a.6.6,0,0,0,.6.6H14a.6.6,0,0,0,.6-.6V12.27l-1.38,2a.4.4,0,0,1-.48.14l-2.1-.84A.4.4,0,0,0,10.1,13.91Z" transform="translate(0 0)"/><path d="M2.6,15V16.4a.6.6,0,0,0,.6.6H6.5a.6.6,0,0,0,.6-.6v-4A.4.4,0,0,0,6.85,12l-1.09-.44a.4.4,0,0,0-.45.11L2.7,14.75A.4.4,0,0,0,2.6,15Z" transform="translate(0 0)"/><path d="M17,5.43a.7.7,0,0,0-1,.17l-1.39,2v-6A.6.6,0,0,0,14,1H10.7a.6.6,0,0,0-.6.6v8.75l-3-1.2V5.6A.6.6,0,0,0,6.5,5H3.2a.6.6,0,0,0-.6.6v5l-1.7,2A.7.7,0,1,0,2,13.45l2.9-3.4a.4.4,0,0,1,.45-.11l7,2.8a.4.4,0,0,0,.48-.14L17.14,6.4A.7.7,0,0,0,17,5.43Z" transform="translate(0 0)"/></svg>