<svg id="图层_1" data-name="图层 1" xmlns="http://www.w3.org/2000/svg" viewBox="0 0 18 18"><title>icon_filterOff</title><rect width="18" height="18" style="fill:none"/><path d="M7.25,13.86v2.45a.91.91,0,0,0,1.31.81l1.15-.57a.93.93,0,0,0,.5-.81V10.9L7.77,13.34Z" transform="translate(0 0)"/><path d="M14.78,1.21H2.68A1.45,1.45,0,0,0,1.54,3.55l5.4,6.94-1,1L4.11,13.31,2.65,14.77a.66.66,0,0,0,0,.92.65.65,0,0,0,.46.19.62.62,0,0,0,.46-.19L5.36,13.9l1.49-1.48.4-.41h0l5.17-5.17L15,4.27l1.15-1.15A1.45,1.45,0,0,0,14.78,1.21ZM8,8.19a.63.63,0,0,1-.39.13.62.62,0,0,1-.5-.24L3.72,3.69a.63.63,0,0,1,.11-.89.64.64,0,0,1,.89.11L8.12,7.3A.63.63,0,0,1,8,8.19Z" transform="translate(0 0)"/></svg>