<svg id="图层_1" data-name="图层 1" xmlns="http://www.w3.org/2000/svg" viewBox="0 0 18 18"><title>icon_addToMe</title><rect width="18" height="18" style="fill:none"/><circle cx="8.95" cy="4.48" r="3.5"/><path d="M8.29,9.28H6.76a2,2,0,0,0-2,1.74l-.48,3.74a2,2,0,0,0,2,2.26H8.56a6,6,0,0,1-.26-7.74Z" transform="translate(0)"/><path d="M13,8a5,5,0,1,0,5,5A5,5,0,0,0,13,8Zm2.69,5.65h-2v2a.65.65,0,0,1-1.3,0v-2h-2a.65.65,0,1,1,0-1.3h2v-2a.65.65,0,0,1,1.3,0v2h2a.65.65,0,1,1,0,1.3Z" transform="translate(0)"/></svg>