<svg id="图层_1" data-name="图层 1" xmlns="http://www.w3.org/2000/svg" xmlns:xlink="http://www.w3.org/1999/xlink" viewBox="0 0 18 18"><defs><linearGradient id="linear-gradient" x1="4.45" y1="9.23" x2="7.73" y2="16.07" gradientUnits="userSpaceOnUse"><stop offset="0" stop-color="#690"/><stop offset="1" stop-color="#a3db00" stop-opacity="0.8"/></linearGradient><linearGradient id="linear-gradient-2" x1="4" y1="7.5" x2="9" y2="7.5" gradientUnits="userSpaceOnUse"><stop offset="0" stop-color="#296936" stop-opacity="0.8"/><stop offset="1" stop-color="#369245" stop-opacity="0.5"/></linearGradient></defs><title>icon_logo_ DoubleClick</title><rect width="18" height="18" style="fill:none"/><path d="M16,5.5A6.45,6.45,0,0,0,9,2.68,6.51,6.51,0,0,1,14,9a3.5,3.5,0,0,1-3.5,3.5A3.45,3.45,0,0,1,9,12.15a3.48,3.48,0,0,1,0-6.3A3.48,3.48,0,0,0,4,9a6.51,6.51,0,0,0,5,6.32,6.46,6.46,0,0,0,7-2.82,6.47,6.47,0,0,0,0-7Z" style="fill:#369245"/><path d="M13,5.5a6.51,6.51,0,1,0-4,9.82A6.51,6.51,0,0,1,4,9a3.5,3.5,0,1,1,5,3.15,3.45,3.45,0,0,0,1.5.35A3.5,3.5,0,0,0,14,9,6.47,6.47,0,0,0,13,5.5Z" style="fill:#a6e000"/><path d="M5,12.5A6.46,6.46,0,0,1,4,9.41C4,9.6,4,9.8,4,10a7.48,7.48,0,0,0,2.27,5.37,6.54,6.54,0,0,0,1.23.13A6.54,6.54,0,0,0,9,15.32,6.5,6.5,0,0,1,5,12.5Z" style="fill:url(#linear-gradient)"/><path d="M7.5,6.5A3.55,3.55,0,0,1,8,6.55a3.53,3.53,0,0,1,1-.7A3.48,3.48,0,0,0,4,9a3.36,3.36,0,0,0,.05.5A3.49,3.49,0,0,1,7.5,6.5Z" style="fill:url(#linear-gradient-2)"/></svg>