<svg id="图层_1" data-name="图层 1" xmlns="http://www.w3.org/2000/svg" viewBox="0 0 18 18"><title>icon_moveTo</title><rect width="18" height="18" style="fill:none"/><path d="M17.19,8.56,14.6,6.14a.6.6,0,0,0-1,.44V8.35H9.65V4.41h1.77a.6.6,0,0,0,.44-1L9.44.81a.6.6,0,0,0-.88,0L6.14,3.4a.6.6,0,0,0,.44,1H8.35V8.35H4.41V6.58a.6.6,0,0,0-1-.44L.81,8.56a.6.6,0,0,0,0,.88L3.4,11.86a.6.6,0,0,0,1-.44V9.65H8.35v3.94H6.58a.6.6,0,0,0-.44,1l2.42,2.59a.6.6,0,0,0,.88,0l2.42-2.59a.6.6,0,0,0-.44-1H9.65V9.65h3.94v1.77a.6.6,0,0,0,1,.44l2.59-2.42A.6.6,0,0,0,17.19,8.56Z" transform="translate(0 0)"/></svg>