<svg id="图层_1" data-name="图层 1" xmlns="http://www.w3.org/2000/svg" viewBox="0 0 72 72"><title>icon_loading_line</title><rect width="72" height="72" style="fill:none"/><path d="M70,16.15a.5.5,0,0,0-.69.17L56.68,37.6a1.94,1.94,0,0,0-2,.54L44.26,32.42a2,2,0,1,0-3.68.46l-11,10.21a2,2,0,0,0-2.79.67l-10.1-2.93s0,0,0-.06a2,2,0,1,0-3.63,1.15L1.86,55.09a.5.5,0,0,0,.76.65L13.85,42.56a2,2,0,0,0,2.58-.78l10.1,2.92s0,0,0,.06a2,2,0,0,0,4,0,2,2,0,0,0-.25-.95l11-10.21a2,2,0,0,0,2.53-.31L54.2,39a2,2,0,1,0,3.35-.92L70.18,16.84A.5.5,0,0,0,70,16.15Z" transform="translate(0 0)" style="fill:#e8e8e8"/></svg>