<svg id="图层_1" data-name="图层 1" xmlns="http://www.w3.org/2000/svg" viewBox="0 0 18 18"><title>icon_logo_yahoo_jp</title><rect width="18" height="18" style="fill:none"/><polygon points="15.65 13.09 14.3 12.93 14.46 11.74 15.8 11.91 15.65 13.09 15.65 13.09" style="fill:#ff1717;fill-rule:evenodd"/><polygon points="17 5.92 14.69 5.64 14.71 10.98 15.71 11.12 17 5.92 17 5.92" style="fill:#ff1717;fill-rule:evenodd"/><path d="M13.92,6.54l-1.52.32a10.12,10.12,0,0,0-1.91,1.39A6.64,6.64,0,0,0,8.69,10l-.06.81,0,.48.13,1.23,2,0,0,.61H7.43l-2.91,0,.1-.58.94,0a1.66,1.66,0,0,0,.87-.19,3.11,3.11,0,0,0,.1-1.13v-.42l0-.84A14.67,14.67,0,0,0,4.91,7.9a19.85,19.85,0,0,0-2-2.26L1,5.38V4.83a21.51,21.51,0,0,1,3,0c1.32,0,2.42,0,3.29,0l-.06.45-2,.19c.61.9,1.55,2.16,2.81,3.75C9.75,8,10.62,7.15,10.66,6.8L9,6.54,8.85,6h2.81L14.3,6l-.39.55Z" transform="translate(0 0)" style="fill:#ff1717;fill-rule:evenodd"/></svg>