<svg id="图层_1" data-name="图层 1" xmlns="http://www.w3.org/2000/svg" viewBox="0 0 18 18"><title>icon_stackBar</title><rect width="18" height="18" transform="translate(0 18) rotate(-90)" style="fill:none"/><path d="M12.4,12.55H1.6a.6.6,0,0,0-.6.6v3.3a.6.6,0,0,0,.6.6H12.4a.6.6,0,0,0,.6-.6v-3.3A.6.6,0,0,0,12.4,12.55Zm-.61,3.1a.2.2,0,0,1-.2.2H7.29v-2.1h4.3a.2.2,0,0,1,.2.2Z" transform="translate(0 0)"/><path d="M16.4,6.75H1.6a.6.6,0,0,0-.6.6v3.3a.6.6,0,0,0,.6.6H16.4a.6.6,0,0,0,.6-.6V7.35A.6.6,0,0,0,16.4,6.75Zm-.59,3.1a.2.2,0,0,1-.2.2h-4.3V7.95h4.3a.2.2,0,0,1,.2.2Z" transform="translate(0 0)"/><path d="M10.4.95H1.6a.6.6,0,0,0-.6.6v3.3a.6.6,0,0,0,.6.6h8.8a.6.6,0,0,0,.6-.6V1.55A.6.6,0,0,0,10.4.95Zm-.58,3.1a.2.2,0,0,1-.2.2H7.32V2.15h2.3a.2.2,0,0,1,.2.2Z" transform="translate(0 0)"/></svg>