<?xml version="1.0" encoding="UTF-8"?>
<svg width="5px" height="14px" viewBox="0 0 5 14" version="1.1" xmlns="http://www.w3.org/2000/svg" xmlns:xlink="http://www.w3.org/1999/xlink">
    <!-- Generator: Sketch 43.1 (39012) - http://www.bohemiancoding.com/sketch -->
    <title>Artboard</title>
    <desc>Created with Sketch.</desc>
    <defs></defs>
    <g id="Page-1" stroke="none" stroke-width="1" fill="none" fill-rule="evenodd">
        <g id="Artboard">
            <g id="connection">
                <rect id="Rectangle-11" x="0" y="0" width="5" height="14"></rect>
                <path d="M1.02568097,1.67096325 C1.31284694,2.27215088 1.81656703,3.050375 2.5,3.050375 C3.18257908,3.050375 3.68631485,2.27272944 3.97372987,1.67163386 C3.34449725,3.32738884 3,5.12345268 3,7 C3,8.90423116 3.3546769,10.7254307 4.00155954,12.4011938 C3.71946832,11.7933561 3.20517388,10.963375 2.5,10.963375 C1.7932571,10.963375 1.27869512,11.7955904 0.997054966,12.4036454 C1.64483882,10.7271018 2,8.9050232 2,7 C2,5.12306651 1.65527787,3.32680114 1.02568097,1.67096325 Z M0.765018471,1.03057674 C0.75504363,1.00074722 0.75,0.984375 0.75,0.984375 L0.75,0.996118733 C0.75502012,1.00759724 0.760026284,1.01908325 0.765018471,1.03057674 Z M0.75,13.0038239 L0.75,13.029375 C0.75,13.029375 0.762941497,12.9873654 0.78836243,12.915327 C0.775667063,12.944875 0.762879465,12.9743741 0.75,13.0038239 Z M4.23634367,1.02643717 C4.24541489,0.999235985 4.25,0.984375 4.25,0.984375 L4.25,0.995108133 C4.24543635,1.00554495 4.24088424,1.01598797 4.23634367,1.02643717 Z M4.25,13.0050517 L4.25,13.029375 C4.25,13.029375 4.23776837,12.9897306 4.2137365,12.9214252 C4.22574211,12.9493446 4.23783005,12.9772202 4.25,13.0050517 Z" id="Combined-Shape" fill="#B2CF07"></path>
            </g>
        </g>
    </g>
</svg>