<svg id="图层_1" data-name="图层 1" xmlns="http://www.w3.org/2000/svg" viewBox="0 0 18 18"><title>icon_progressbar</title><rect width="18" height="18" style="fill:none"/><path d="M16,12.94H2a1,1,0,1,0,0,2H16a1,1,0,0,0,0-2Z"/><path d="M1.93,5.2l.65-.28V10.5A.72.72,0,0,0,4,10.5V4c0-.83-.45-1-1-.81l-1.53.61A.74.74,0,0,0,1.93,5.2Z"/><path d="M6.08,11.12h4.2c.94,0,.83-1.5,0-1.5H9c-.48,0-1,.07-1.53.07a13.84,13.84,0,0,0,2.1-1.63c2.06-2.15,1-5-1.53-5A2.5,2.5,0,0,0,5.7,4.5c-.43,1,.7,1.54,1.14.8a1.51,1.51,0,0,1,1.23-.78c1.46,0,1.47,1.68.48,2.51-1.05,1-2,1.75-2.94,2.86A.69.69,0,0,0,6.08,11.12Z"/><path d="M14.08,11.12A2.61,2.61,0,0,0,17,8.47a2.2,2.2,0,0,0-2.36-2.26l1.8-1.8A.77.77,0,0,0,16,3.06H12.65c-.85,0-.91,1.46,0,1.46H14.5L12.8,6.21a.75.75,0,0,0,.65,1.32c.75-.08,2.12-.27,2.12.94a1.16,1.16,0,0,1-1.31,1.22A1.46,1.46,0,0,1,13,9.1a.71.71,0,1,0-1.18.8A2.52,2.52,0,0,0,14.08,11.12Z"/></svg>