<svg id="图层_1" data-name="图层 1" xmlns="http://www.w3.org/2000/svg" viewBox="0 0 18 18"><title>icon_logo_onedrive</title><rect width="18" height="18" style="fill:none"/><path d="M6.59,9.48A3.09,3.09,0,0,1,8.74,6.73,3,3,0,0,1,12.27,8a2.6,2.6,0,0,1,3.87,2.37l.16.06a2,2,0,0,1,1.1,3.18,1.49,1.49,0,0,1-1.31.65H6.68A2.38,2.38,0,0,1,4.32,11,2.22,2.22,0,0,1,6.23,9.54Z" transform="translate(0 0)" style="fill:#094ab1"/><path d="M6.14,9c-2.37.73-3.06,2.19-2,4.44H2.57A2.43,2.43,0,0,1,.21,11.33,2.31,2.31,0,0,1,2.1,8.71l.2,0A3,3,0,0,1,3.58,5.88a2.83,2.83,0,0,1,3-.17A3.81,3.81,0,0,1,9,3.87a3.69,3.69,0,0,1,2.23.18,3.73,3.73,0,0,1,2.41,3.11,2.93,2.93,0,0,0-1.2.25A3.31,3.31,0,0,0,8.75,6.2,3.53,3.53,0,0,0,6.14,9Z" transform="translate(0 0)" style="fill:#094ab1"/></svg>