<svg id="图层_1" data-name="图层 1" xmlns="http://www.w3.org/2000/svg" viewBox="0 0 18 18"><title>icon_logo_facebookAd</title><rect width="18" height="18" style="fill:none"/><rect id="Blue" x="2.3" y="2.3" width="13.4" height="13.4" rx="0.74" ry="0.74" style="fill:#3b5998"/><path d="M6.48,10.68h.83v.84H6.48Z" style="fill:#fff"/><path d="M9.12,11.39l-.51-.71H8.16l.17,1h.74C9.23,11.7,9.24,11.55,9.12,11.39Z" style="fill:#fff"/><path d="M7.15,14a.53.53,0,0,1-.54-.32c-.47-.84-1-1.65-1.49-2.51l-.31-.52h2.5c.14.62.76,2.43.84,3,0,.27,0,.3-.27.33a4.66,4.66,0,0,1-.56,0Z" style="fill:#fff;fill-rule:evenodd"/><path d="M8.25,6.49H8.16V9.84h.09c2.85,0,4.73,1,4.86,2.51V4C13,5.47,11.1,6.49,8.25,6.49Z" style="fill:#d5d2c4"/><path d="M4.33,6.49A1.23,1.23,0,0,0,3.13,7.76v.82A1.21,1.21,0,0,0,4.33,9.84h3V6.49Z" style="fill:#fff"/><path d="M7.32,10.68H4.82l.31.52.14.24,2.06-.71Z" style="fill:#d5d2c4"/><path d="M14,12.36V4h-.91v8.35H14Z" style="fill:#fff"/></svg>