<svg id="图层_1" data-name="图层 1" xmlns="http://www.w3.org/2000/svg" viewBox="0 0 18 18"><title>icon_style</title><rect width="18" height="18" style="fill:none"/><path d="M17.41,15.61l-5-5a1,1,0,0,0-1.22-.14L10.67,10,14.92,5.7a2.14,2.14,0,0,0,0-3L13.12.88a.92.92,0,0,0-1.3,0L11,1.67,10,.59a1,1,0,0,0-1.44,0L.59,8.51A1,1,0,0,0,.59,10l2.88,2.88a1,1,0,0,0,1.44,0l7.92-7.92a1,1,0,0,0,0-1.44L11.75,2.39l.72-.72L14.2,3.4A1.12,1.12,0,0,1,14.2,5L9.88,9.3a.92.92,0,0,0,0,1.3l.54.54a1,1,0,0,0,.14,1.22l5,5a1,1,0,0,0,1.44,0l.36-.36A1,1,0,0,0,17.41,15.61Z"/></svg>