<svg id="图层_1" data-name="图层 1" xmlns="http://www.w3.org/2000/svg" viewBox="0 0 18 18"><title>icon_setting</title><rect width="18" height="18" style="fill:none"/><path d="M15.72,10.13A1.87,1.87,0,0,1,15.39,9s0,0,0,0a1.87,1.87,0,0,1,.33-1.11l1-1.39a1,1,0,0,0,.05-1L16,4A1,1,0,0,0,15,3.57l-1.71.17a1.88,1.88,0,0,1-1.13-.27h0a1.88,1.88,0,0,1-.8-.84l-.7-1.57A1,1,0,0,0,9.81.5H8.19a1,1,0,0,0-.87.56l-.7,1.57a1.88,1.88,0,0,1-.8.84h0a1.88,1.88,0,0,1-1.13.27L3,3.57A1,1,0,0,0,2,4L1.23,5.45a1,1,0,0,0,.05,1l1,1.39A1.87,1.87,0,0,1,2.61,9V9a1.87,1.87,0,0,1-.33,1.11l-1,1.39a1,1,0,0,0-.05,1L2,14a1,1,0,0,0,.92.47l1.71-.17a1.88,1.88,0,0,1,1.13.27h0a1.88,1.88,0,0,1,.8.84l.7,1.57a1,1,0,0,0,.87.56H9.81a1,1,0,0,0,.87-.56l.7-1.57a1.88,1.88,0,0,1,.8-.84h0a1.88,1.88,0,0,1,1.13-.27l1.71.17A1,1,0,0,0,16,14l.81-1.41a1,1,0,0,0-.05-1ZM9,11.67A2.67,2.67,0,1,1,11.67,9,2.67,2.67,0,0,1,9,11.67Z" transform="translate(0)"/></svg>