<svg id="图层_1" data-name="图层 1" xmlns="http://www.w3.org/2000/svg" viewBox="0 0 24 24"><title>pic_user</title><rect width="24" height="24" style="fill:#f4f4f4"/><path d="M19,19.78a9.23,9.23,0,0,0-3.17-1.4.73.73,0,0,0-.65.17A4.91,4.91,0,0,1,12,19.83a4.19,4.19,0,0,1-1.64-.3,5.07,5.07,0,0,1-1.59-1,.74.74,0,0,0-.66-.17A9.23,9.23,0,0,0,5,19.78c-1.36,1-1.5,1.5-1.5,2.65v1a.61.61,0,0,0,.61.61H19.89a.61.61,0,0,0,.61-.61v-1C20.5,21.28,20.36,20.73,19,19.78Z" style="fill:#d8d8d8"/><path d="M7.3,14.27l.19-.06a5.64,5.64,0,0,0,3.24,4.19,3,3,0,0,0,1.12.22H12c2,0,3.73-1.7,4.39-4.08l.14-.34a.81.81,0,0,0,.22.08c.58.11,1.18-.44,1.33-1.23a1.31,1.31,0,0,0-.78-1.64h-.08c.24-2.22,0-5.54-2.5-6.86C12,3.1,10,3.48,9.81,5.25c0,0-1.45-.86-2.57,1.38a7.6,7.6,0,0,0-.37,4.75H6.74A1.31,1.31,0,0,0,6,13C6.12,13.83,6.72,14.38,7.3,14.27Z" style="fill:#d8d8d8"/></svg>