<svg id="图层_1" data-name="图层 1" xmlns="http://www.w3.org/2000/svg" xmlns:xlink="http://www.w3.org/1999/xlink" viewBox="0 0 18 18"><defs><linearGradient id="未命名的渐变_2" x1="-488.36" y1="358.87" x2="-488.36" y2="358.81" gradientTransform="matrix(256, 0, 0, -256, 125028.94, 91872.31)" gradientUnits="userSpaceOnUse"><stop offset="0" stop-color="#5f4fc6"/><stop offset="1" stop-color="#648cef"/></linearGradient><linearGradient id="未命名的渐变_23" x1="13.84" y1="11.99" x2="16.01" y2="11.99" gradientUnits="userSpaceOnUse"><stop offset="0" stop-color="#5d91ee" stop-opacity="0.2"/><stop offset="1" stop-color="#648cef" stop-opacity="0.5"/></linearGradient><linearGradient id="未命名的渐变_18" x1="10.34" y1="14.63" x2="16.01" y2="14.63" gradientUnits="userSpaceOnUse"><stop offset="0" stop-color="#739aff"/><stop offset="1" stop-color="#54d8ff"/></linearGradient></defs><title>icon_stripe</title><rect width="18" height="18" style="fill:none"/><rect x="2.61" y="2.39" width="13.4" height="13.4" rx="1" ry="1" style="fill:url(#未命名的渐变_2)"/><path d="M10,8.09c-.76-.28-1.18-.5-1.18-.84s.24-.46.67-.46a5.13,5.13,0,0,1,2.14.57l.31-1.93a6,6,0,0,0-2.57-.55,3.29,3.29,0,0,0-2.12.66,2.34,2.34,0,0,0-.82,1.88c0,1.42.86,2,2.27,2.53.91.32,1.21.55,1.21.91s-.29.54-.82.54a5.73,5.73,0,0,1-2.45-.74l-.31,1.95a6.35,6.35,0,0,0,2.9.7,3.54,3.54,0,0,0,2.22-.63,2.42,2.42,0,0,0,.89-2c0-1.45-.89-2.05-2.31-2.56Z" style="fill:#fff"/><path d="M15,15.79H13.84v-7L16,8.18v6.61A1,1,0,0,1,15,15.79Z" style="fill:url(#未命名的渐变_23)"/><path d="M16,14.79a1,1,0,0,1-1,1H9.31v-1.1L16,13.47Z" style="fill:url(#未命名的渐变_18)"/><path d="M2.61,3.39V4.75L13.39,2.39H3.61A1,1,0,0,0,2.61,3.39Z" style="fill:#6758d2;opacity:0.6"/><path d="M6.84,2.39H3.61a1,1,0,0,0-1,1V4.75l4.23-.93Z" style="fill:#6549ba"/></svg>