<svg id="图层_1" data-name="图层 1" xmlns="http://www.w3.org/2000/svg" viewBox="0 0 72 72"><title>icon_loading_column</title><rect width="72" height="72" style="fill:none"/><path d="M33.2,19h5.6a1,1,0,0,1,1,1V53a0,0,0,0,1,0,0H32.2a0,0,0,0,1,0,0V20A1,1,0,0,1,33.2,19Z" style="fill:#e8e8e8"/><path d="M18,27.82h5.6a1,1,0,0,1,1,1V53a0,0,0,0,1,0,0H17a0,0,0,0,1,0,0V28.82A1,1,0,0,1,18,27.82Z" style="fill:#e8e8e8"/><path d="M2.8,36.58H8.4a1,1,0,0,1,1,1V53a0,0,0,0,1,0,0H1.8a0,0,0,0,1,0,0V37.58A1,1,0,0,1,2.8,36.58Z" style="fill:#e8e8e8"/><path d="M48.4,31.32H54a1,1,0,0,1,1,1V53a0,0,0,0,1,0,0H47.4a0,0,0,0,1,0,0V32.32A1,1,0,0,1,48.4,31.32Z" style="fill:#e8e8e8"/><path d="M63.6,41.85h5.6a1,1,0,0,1,1,1V53a0,0,0,0,1,0,0H62.6a0,0,0,0,1,0,0V42.85A1,1,0,0,1,63.6,41.85Z" style="fill:#e8e8e8"/></svg>