<svg id="图层_1" data-name="图层 1" xmlns="http://www.w3.org/2000/svg" viewBox="0 0 72 72"><title>icon_loading_error</title><rect width="72" height="72" style="fill:#fff"/><path d="M59.35,34.59,37.41,12.65a2,2,0,0,0-2.83,0L12.65,34.59a2,2,0,0,0,0,2.83L34.59,59.35a2,2,0,0,0,2.83,0L59.35,37.41A2,2,0,0,0,59.35,34.59ZM36,24.16a2.42,2.42,0,0,1,2.42,2.56L37.74,38.3a1.75,1.75,0,0,1-3.49,0l-.67-11.58A2.42,2.42,0,0,1,36,24.16Zm0,23.67a2.57,2.57,0,1,1,2.57-2.57A2.57,2.57,0,0,1,36,47.84Z" transform="translate(0)" style="fill:#e8e8e8"/></svg>