<svg id="图层_1" data-name="图层 1" xmlns="http://www.w3.org/2000/svg" viewBox="0 0 18 18"><title>icon_logo_Redshift</title><rect width="18" height="18" style="fill:none"/><rect x="7.6" y="1.53" width="2.8" height="14.93" style="fill:#2e73b8"/><polygon points="14.6 14.6 12.73 13.67 12.73 4.33 14.6 3.4 14.6 14.6" style="fill:#1f5b99"/><polygon points="12.73 15.39 10.4 16.47 10.4 1.53 12.73 2.61 12.73 15.39" style="fill:#5194d0"/><polygon points="16 13.79 14.6 14.6 14.6 3.4 16 4.21 16 13.79" style="fill:#5194d0"/><polygon points="3.4 3.4 5.27 4.33 5.27 13.67 3.4 14.6 3.4 3.4" style="fill:#5194d0"/><polygon points="2 4.21 3.4 3.4 3.4 14.6 2 13.79 2 4.21" style="fill:#1f5b99"/><polygon points="5.27 2.61 7.6 1.53 7.6 16.47 5.27 15.39 5.27 2.61" style="fill:#1f5b99"/></svg>