<svg id="图层_1" data-name="图层 1" xmlns="http://www.w3.org/2000/svg" viewBox="0 0 18 18"><title>icon_started</title><rect width="18" height="18" transform="translate(18 0) rotate(90)" style="fill:none"/><path d="M9.43,1.16l2.12,4.3a1.06,1.06,0,0,0,.8.58l4.74.69a.48.48,0,0,1,.26.81l-3.43,3.35a1.06,1.06,0,0,0-.31.94l.81,4.73a.48.48,0,0,1-.69.5L9.49,14.82a1.06,1.06,0,0,0-1,0L4.26,17.05a.48.48,0,0,1-.69-.5l.81-4.73a1.06,1.06,0,0,0-.31-.94L.64,7.54a.48.48,0,0,1,.26-.81L5.65,6a1.06,1.06,0,0,0,.8-.58l2.12-4.3A.48.48,0,0,1,9.43,1.16Z" transform="translate(0 0)"/></svg>