<svg id="图层_1" data-name="图层 1" xmlns="http://www.w3.org/2000/svg" viewBox="0 0 18 18"><title>icon_logo_Salesforce</title><rect width="18" height="18" style="fill:none"/><path d="M13.52,4.68a3.3,3.3,0,0,0-1.37.3A2.83,2.83,0,0,0,9.67,3.44a2.76,2.76,0,0,0-2,.91A3,3,0,0,0,5.14,3,3.21,3.21,0,0,0,2,6.31a3.48,3.48,0,0,0,.29,1.38A2.92,2.92,0,0,0,1,10.16a2.8,2.8,0,0,0,2.7,2.89A2.48,2.48,0,0,0,4.23,13a2.88,2.88,0,0,0,2.69,2,2.87,2.87,0,0,0,2.64-1.86,2.39,2.39,0,0,0,1.11.28A2.52,2.52,0,0,0,12.87,12a3.21,3.21,0,0,0,.65.07A3.61,3.61,0,0,0,17,8.39,3.61,3.61,0,0,0,13.52,4.68Z" style="fill:#009cdb"/></svg>