<svg id="图层_1" data-name="图层 1" xmlns="http://www.w3.org/2000/svg" viewBox="0 0 24 24"><title>icon_add_dataset</title><rect width="24" height="24" style="fill:none"/><rect x="4" y="8.25" width="4.66" height="3.24" rx="0.6" ry="0.6"/><rect x="4" y="12.51" width="4.66" height="3.24" rx="0.6" ry="0.6"/><rect x="4" y="16.76" width="4.66" height="3.24" rx="0.6" ry="0.6"/><rect x="9.67" y="8.25" width="4.66" height="3.24" rx="0.6" ry="0.6"/><rect x="9.67" y="12.51" width="4.66" height="3.24" rx="0.6" ry="0.6"/><rect x="15.34" y="8.25" width="4.66" height="3.24" rx="0.6" ry="0.6"/><rect x="4" y="4" width="16" height="3.24" rx="0.6" ry="0.6"/><path d="M19.4,12.51H15.94a.6.6,0,0,0-.6.6v1.11A5.91,5.91,0,0,1,20,13.09.6.6,0,0,0,19.4,12.51Z"/><path d="M10.27,16.76a.6.6,0,0,0-.6.6v2a.6.6,0,0,0,.6.6H13a5.85,5.85,0,0,1,.35-3.24Z"/><path d="M19,14a5,5,0,1,0,5,5A5,5,0,0,0,19,14Zm2.69,5.65h-2v2a.65.65,0,0,1-1.3,0v-2h-2a.65.65,0,1,1,0-1.3h2v-2a.65.65,0,0,1,1.3,0v2h2a.65.65,0,1,1,0,1.3Z"/></svg>