<svg id="图层_1" data-name="图层 1" xmlns="http://www.w3.org/2000/svg" viewBox="0 0 18 18"><title>icon_logo_standardRedshift</title><rect width="18" height="18" style="fill:none"/><path d="M14.57,3.34a1.2,1.2,0,0,0-1.15-.82H4.57a1.21,1.21,0,0,0-1.14.82L1.75,8.19v6.47a.81.81,0,0,0,.81.81h.81a.81.81,0,0,0,.81-.81v-.75h9.67v.75a.81.81,0,0,0,.81.81h.81a.81.81,0,0,0,.8-.81V8.19Zm-10,8a1.21,1.21,0,1,1,1.21-1.21A1.21,1.21,0,0,1,4.57,11.33Zm8.86,0a1.21,1.21,0,1,1,1.21-1.21A1.21,1.21,0,0,1,13.43,11.33Zm-10.07-4L4.57,3.74h8.86l1.21,3.63Z" style="fill:#2196f3"/></svg>