<svg id="图层_1" data-name="图层 1" xmlns="http://www.w3.org/2000/svg" viewBox="0 0 18 18"><title>icon_member_add</title><rect width="18" height="18" style="fill:none"/><path d="M13,8a5,5,0,1,0,5,5A5,5,0,0,0,13,8Zm2.69,5.65h-2v2a.65.65,0,0,1-1.3,0v-2h-2a.65.65,0,1,1,0-1.3h2v-2a.65.65,0,0,1,1.3,0v2h2a.65.65,0,1,1,0,1.3Z" transform="translate(0 0)"/><path d="M6.31,12.91a.61.61,0,0,0-.54-.14A7.6,7.6,0,0,0,3.23,13.9C2.11,14.69,2,15.14,2,16.09v.78a.5.5,0,0,0,.5.5h6.4a6,6,0,0,1-1.89-4A4.44,4.44,0,0,1,6.31,12.91Z" transform="translate(0 0)"/><path d="M5.13,9.36l.16-.05A5.15,5.15,0,0,0,7,12.26,6,6,0,0,1,13,7h.26V7c.19-1.83,0-4.54-2.06-5.62C9,.17,7.36.48,7.19,1.94c0,0-1.19-.7-2.11,1.14A6.26,6.26,0,0,0,4.78,7H4.67A1.08,1.08,0,0,0,4,8.35C4.16,9,4.65,9.45,5.13,9.36Z" transform="translate(0 0)"/></svg>