<svg id="图层_1" data-name="图层 1" xmlns="http://www.w3.org/2000/svg" xmlns:xlink="http://www.w3.org/1999/xlink" viewBox="0 0 18 18"><defs><radialGradient id="radial-gradient" cx="10.21" cy="8.15" r="9.18" gradientTransform="translate(-3.43 -3.81) scale(1.44)" gradientUnits="userSpaceOnUse"><stop offset="0" stop-color="#fff"/><stop offset="0.91" stop-color="#99a4b1"/><stop offset="0.99" stop-color="#909baa"/></radialGradient><radialGradient id="Nieuwe_verloopstaal_3" cx="9.17" cy="6.07" r="4.5" xlink:href="#radial-gradient"/><radialGradient id="radial-gradient-2" cx="7.99" cy="7.97" r="3.81" gradientTransform="translate(-3.43 -3.81) scale(1.44)" gradientUnits="userSpaceOnUse"><stop offset="0" stop-color="#ff8b5c"/><stop offset="1" stop-color="#b80018"/></radialGradient></defs><title>icon_logo_SQLserver</title><rect width="18" height="18" style="fill:none"/><path d="M10.36,8.72c0-.06-.26.08-.32.09a10.76,10.76,0,0,1,.14,1.45,12.39,12.39,0,0,1-1.54-1l-.15.08V9.28l-.23.08c-.08.06,0,0,0,.08a4.59,4.59,0,0,1-.26,2,2.94,2.94,0,0,1-1-1.45L6.8,10c-.06,0-.09,0-.07.07A3.21,3.21,0,0,0,7.8,11.59c-.43.17-.91.35-1.46.53l-.74.24A11.28,11.28,0,0,0,6.72,10l-.33.13A15.89,15.89,0,0,1,5.2,12.32l0,.06A1.87,1.87,0,0,1,5,10.87H5c0-.09-.29.15-.32.16s-.09.11-.11.2a2.12,2.12,0,0,0,0,.42,1.89,1.89,0,0,0,.3.93c-.7.22-1.52.46-2.28.66,0,0,0-.05,0-.08a2.83,2.83,0,0,1,1.3-1.62L4,11.37l-.87.6a3,3,0,0,0-1,1.39c-.17.73.39,1.31,1,1.73A6.65,6.65,0,0,0,5.26,16a17.27,17.27,0,0,0,3.48.49h.15l0-.09a14.31,14.31,0,0,0,1.38-3.69,11.18,11.18,0,0,0,0-4m-1.87.7a14.12,14.12,0,0,0,1.67.94,9.59,9.59,0,0,1-1.94,1.05,6.06,6.06,0,0,0,.27-2M6.61,12.36c.41-.14.8-.3,1.15-.45a14.69,14.69,0,0,1-1,2h0a5.09,5.09,0,0,1-.5-.32,4.31,4.31,0,0,1-.88-.83c.41-.11.82-.23,1.21-.36m-4,1,2.28-.54c-.57.85-1.06,1.47-1.36,2a2.22,2.22,0,0,1-.93-1.41m1,1.5c.46-.68,1-1.3,1.53-1.92a4,4,0,0,0,.41.43,4.31,4.31,0,0,0,.86.6c-.89.32-1.82.65-2.71,1L3.6,14.9m2,.93-.14,0A5.83,5.83,0,0,1,3.8,15c.37-.1,2-.52,2.74-.77-.44.71-.82,1.28-1,1.55h0m3.23.57c-.61-.07-1.88-.27-2.72-.45a13,13,0,0,0,3.27-1c-.21.64-.43,1.22-.54,1.47m-2.94-.51h0l-.11,0a13.84,13.84,0,0,0,1.19-1.61,8.6,8.6,0,0,0,2.43.58c-.54.21-3.35,1-3.49,1m4.08-3c-.1.46-.32,1.18-.54,1.87a8.77,8.77,0,0,1-2.29-.71A29.44,29.44,0,0,0,10,12.68l0,.21m.07-.34a27.08,27.08,0,0,1-2.75,1.14,11,11,0,0,0,.84-1.9,6.38,6.38,0,0,0,1.9.76h0m0-.09a6.22,6.22,0,0,1-1.72-.81,10.45,10.45,0,0,0,1.88-1.15,11.25,11.25,0,0,1-.16,2" style="fill:url(#radial-gradient)"/><path d="M5,3.57c-.29-.22,0-.54.2-.69l.24-.18c.23.28.8,1,1,1.25l.4,0c-.2-.18-1.09-1.06-1.34-1.28h0a12.58,12.58,0,0,0,2.56.49h0a11.34,11.34,0,0,0-1.25.7l.34.06a4.34,4.34,0,0,0,1-.66,9.12,9.12,0,0,0,.5,1l.33,0A11.15,11.15,0,0,1,7.8,1.5C7.37,1.63,5,2.45,4.57,3c-.17.23.32.41.48.52m2.7-2a4.74,4.74,0,0,0,.32,1.33c-.55-.14-1.89-.34-2.35-.4a15.13,15.13,0,0,1,2-.93" style="fill:url(#Nieuwe_verloopstaal_3)"/><path d="M15.8,7.46C15,6.18,13.73,5,10,4.31,9.21,4.16,8.28,4,6.65,3.76,6.08,3.66,4.36,3.4,4.57,3a.25.25,0,0,0,0,.35c.85,1,2.08,1.54,2.08,3.51,0,1.81-1.63,3.5-3.27,4.86L3.16,12A26,26,0,0,1,7.9,9.68a45.26,45.26,0,0,1,8-2.13ZM12.6,5.39c.22.08.44.17.64.27a16.31,16.31,0,0,0-2.84.88,4.6,4.6,0,0,0,.5-1.69A13.35,13.35,0,0,1,12.6,5.39ZM10,6.58A7.44,7.44,0,0,0,8.83,6a16.94,16.94,0,0,1,1.91-1.18A4.67,4.67,0,0,1,10,6.58Zm-3.2-.79a7.86,7.86,0,0,1,1.29.39A16.76,16.76,0,0,0,6.87,7.3,5.21,5.21,0,0,0,6.82,5.79Zm1.44.62a5.31,5.31,0,0,1-.69,1.64,1.88,1.88,0,0,0-.66-.49A15.8,15.8,0,0,1,8.27,6.41Zm.28-.06a11.11,11.11,0,0,1,1.08.54A16.29,16.29,0,0,0,8,7.77,4.59,4.59,0,0,0,8.55,6.35Zm2-1.59a10,10,0,0,0-1.89,1,3.18,3.18,0,0,0-.27-1.44C9.07,4.47,9.79,4.6,10.51,4.76ZM8.19,4.33a3.72,3.72,0,0,1,.17,1.5c-.49-.16-1-.3-1.44-.42A8,8,0,0,1,8.18,4.33ZM5.12,3.65a9.35,9.35,0,0,0,1,.27c.16.45.28.86.38,1.24A4.61,4.61,0,0,0,5.12,3.65ZM6.23,4c.66.15,1.37.28,1.78.34a4.79,4.79,0,0,0-1.3,1A7,7,0,0,0,6.23,4Zm.51,4a2.24,2.24,0,0,1,.51.33c-.4.28-.75.55-1.06.8A3.82,3.82,0,0,0,6.74,8ZM5.92,9.49c.3-.22.72-.51,1.24-.85a7.49,7.49,0,0,1-2,1.7A7.63,7.63,0,0,0,5.92,9.49Zm-.37.86a9,9,0,0,0,2-1.8,1.56,1.56,0,0,1,.34.81A21.88,21.88,0,0,0,5.54,10.35ZM8,9.3a1.91,1.91,0,0,0-.26-1c.54-.33,1.16-.68,1.85-1A23.24,23.24,0,0,1,8,9.3Zm.25-.1a9.87,9.87,0,0,0,1.81-2.06A8,8,0,0,1,11.4,8.2C10.47,8.44,9.42,8.77,8.25,9.21Zm3.37-1.07h0a4.78,4.78,0,0,0-1.19-1.27,21.21,21.21,0,0,1,3-1.07,29,29,0,0,1-1.78,2.34h0Zm.28-.07a6.14,6.14,0,0,0,1.68-2.23,7.22,7.22,0,0,1,2,1.55l.09.08A20.58,20.58,0,0,0,11.91,8.07Z" style="fill:url(#radial-gradient-2)"/></svg>