<svg id="图层_1" data-name="图层 1" xmlns="http://www.w3.org/2000/svg" viewBox="0 0 72 72"><title>icon_loading_bar</title><rect width="72" height="72" style="fill:none"/><path d="M33.2,2h5.6a1,1,0,0,1,1,1V70a0,0,0,0,1,0,0H32.2a0,0,0,0,1,0,0V3A1,1,0,0,1,33.2,2Z" transform="translate(72 0) rotate(90)" style="fill:#e8e8e8"/><path d="M21.93,26.28h5.6a1,1,0,0,1,1,1V71.72a0,0,0,0,1,0,0h-7.6a0,0,0,0,1,0,0V27.28a1,1,0,0,1,1-1Z" transform="translate(73.73 24.27) rotate(90)" style="fill:#e8e8e8"/><path d="M11.74,10.47h5.6a1,1,0,0,1,1,1V35.53a0,0,0,0,1,0,0h-7.6a0,0,0,0,1,0,0V11.47A1,1,0,0,1,11.74,10.47Z" transform="translate(37.54 8.46) rotate(90)" style="fill:#e8e8e8"/></svg>