<svg id="图层_1" data-name="图层 1" xmlns="http://www.w3.org/2000/svg" viewBox="0 0 18 18"><title>icon_map</title><rect width="18" height="18" style="fill:none"/><path d="M6.16,4.06a.14.14,0,0,0,0,.06v.64l1.13-.83h0l.93-.48a.13.13,0,0,0,.06-.06l.42-1a.13.13,0,0,0-.1-.19L6.56,2h0l-2,.25h0l-1.21.62a.12.12,0,0,1-.13,0l-.76-.59a.12.12,0,0,0-.09,0l-1.39.2a.12.12,0,0,0-.08,0L0,3.57a.13.13,0,0,0,.13.22L1,3.56a.12.12,0,0,1,.1,0l.28.2a.14.14,0,0,1,0,.22l-.28.22a.14.14,0,0,0-.05.11v1a.14.14,0,0,1,0,.1l-.7.67a.14.14,0,0,0,0,.12l.22,2a.14.14,0,0,0,0,.09L2.32,9.77a.14.14,0,0,1,0,.13l-.21,1.29a.14.14,0,0,0,0,.1l.7,1,0,0,.34,1.25a.14.14,0,0,1,0,0v.89a.14.14,0,0,0,0,.09L4.49,16a.12.12,0,0,0,.11,0l.73-.14a.14.14,0,0,0,.06-.23l-.81-.74a.14.14,0,0,1,0-.1v-1.1a.14.14,0,0,1,0-.08l.5-.68a.14.14,0,0,0,0-.08l.07-1.77A.14.14,0,0,0,5.11,11l-1-.73,0,0L3.38,9.5l0,0-.64-.34h0L2.3,8.82l.89-.31a.14.14,0,0,0,0-.25L2.76,8A.14.14,0,0,1,2.7,7.9V7.58a.14.14,0,0,1,0-.1L4.12,6.25l.07,0,1.29-.07A.13.13,0,0,0,5.6,6V5.59a.14.14,0,0,0,0-.06l-.49-1a.14.14,0,0,1,0-.15l1.3-1.56.12.36a.14.14,0,0,1,0,.11Z" transform="translate(0 0)"/><path d="M18,11l-.82-.79a.12.12,0,0,0-.08,0h-.78l.17-.45a.14.14,0,0,0,0-.12l-.31-.49a.12.12,0,0,0-.2,0l-.5.58a.12.12,0,0,1-.19,0l-.48-.58a.14.14,0,0,1,0-.2l1.52-1a.14.14,0,0,0,0-.19l-.61-.88a.14.14,0,0,1,0-.17l.65-.8a.14.14,0,0,0,0-.17l-.67-.88a.14.14,0,0,1,0-.2l.5-.31a.12.12,0,0,1,.18.06l.29.66A.12.12,0,0,0,17,5l.08-1.09a.14.14,0,0,1,0-.06l.34-.56H13.66a.12.12,0,0,1-.09,0l-.44-.43a.12.12,0,0,0-.09,0H11.49a.12.12,0,0,0-.11.07l-.64,1.26a.12.12,0,0,1-.18,0l-.38-.29a.12.12,0,0,0-.12,0l-1.22.58a.13.13,0,0,0-.06.07L8.57,5a.13.13,0,0,1-.09.08l-1,.18a.13.13,0,0,0-.11.13v.47A.13.13,0,0,0,7.49,6l.59,0-.72.55a.14.14,0,0,0,0,.19l.15.2a.12.12,0,0,0,.18,0l.64-.58a.12.12,0,0,1,.17,0l.3.31,0,0,.9.46a.13.13,0,0,1,.07.12v.34a.13.13,0,0,1-.15.13L7.95,7.41a.12.12,0,0,0-.12,0L6.53,8.88a.14.14,0,0,0,0,.21l1.69,1.09a.14.14,0,0,1,.06.1l.15,2.06a.14.14,0,0,0,0,.05l.64,1.32a.12.12,0,0,0,.22,0l1.16-1.83a.14.14,0,0,0,0-.07V10.9a.14.14,0,0,1,.06-.12l.91-.57a.14.14,0,0,0,0-.22l-.65-.52a.14.14,0,0,1,0-.22L12,8.44l.07,0h.41a.13.13,0,0,1,.12.11l.2,1.29a.13.13,0,0,0,.09.11l.55.14a.13.13,0,0,0,.15-.16l-.18-.82a.14.14,0,0,1,0-.13l.4-.4a.12.12,0,0,1,.2,0l.34.94a.14.14,0,0,1,0,.13l-.33.46a.14.14,0,0,0,0,.17l1,1.15a.12.12,0,0,0,.09,0h.53a.12.12,0,0,0,.08,0l.61-.51a.12.12,0,0,1,.13,0l1.05.49a.12.12,0,0,0,.11,0l.27-.17A.14.14,0,0,0,18,11Z" transform="translate(0 0)"/><path d="M17.14,11.86a.12.12,0,0,0-.08,0h-.69a.12.12,0,0,0-.09,0l-.95,1a.14.14,0,0,0,0,.1v.85a.13.13,0,0,0,.13.13h.83a.12.12,0,0,1,.1.06l.55.85a.12.12,0,0,0,.21,0l.71-1.37a.14.14,0,0,0,0-.06V12.6a.14.14,0,0,0,0-.1Z" transform="translate(0 0)"/></svg>