<svg id="图层_1" data-name="图层 1" xmlns="http://www.w3.org/2000/svg" viewBox="0 0 18 18"><title>icon_data</title><rect width="18" height="18" style="fill:none"/><path d="M14.07,12.74a1.07,1.07,0,0,0-.62,0A15.73,15.73,0,0,1,9,13.29a15.73,15.73,0,0,1-4.46-.52,1.07,1.07,0,0,0-.62,0l-.57.16a1,1,0,0,0-.72,1v1.3a1.07,1.07,0,0,0,.7,1.12A19.39,19.39,0,0,0,9,17.13a19.39,19.39,0,0,0,5.67-.85,1,1,0,0,0,.7-1V13.86a1,1,0,0,0-.72-1Z" transform="translate(0)"/><path d="M14.1,7.15a1.07,1.07,0,0,0-.62,0A15.65,15.65,0,0,1,9,7.71a15.65,15.65,0,0,1-4.48-.53,1.07,1.07,0,0,0-.62,0l-.54.16a1,1,0,0,0-.72,1v1.3a1.07,1.07,0,0,0,.7,1.12A19.39,19.39,0,0,0,9,11.54a19.39,19.39,0,0,0,5.67-.85,1,1,0,0,0,.7-1V8.26a1,1,0,0,0-.72-1Z" transform="translate(0)"/><path d="M9,.87a19.39,19.39,0,0,0-5.67.85,1,1,0,0,0-.7,1V4.14a1,1,0,0,0,.7,1A19.39,19.39,0,0,0,9,6a19.39,19.39,0,0,0,5.67-.85,1,1,0,0,0,.7-1V2.68a1,1,0,0,0-.7-1A19.39,19.39,0,0,0,9,.87Z" transform="translate(0)"/></svg>