<svg id="图层_1" data-name="图层 1" xmlns="http://www.w3.org/2000/svg" viewBox="0 0 18 18"><title>icon_logo_ptengine</title><rect width="18" height="18" style="fill:none"/><circle cx="9" cy="9" r="7" style="fill:#333"/><path d="M6.84,4.63a3.11,3.11,0,0,0-2.25.91,3,3,0,0,0-.84,2.2v5h0c0,.35.17.61.52.61a.55.55,0,0,0,.55-.61h0V10.24a3.64,3.64,0,0,0,1.87.62,3.13,3.13,0,0,0,2.25-.91,3.05,3.05,0,0,0,.94-2.2A3,3,0,0,0,9,5.54,2.91,2.91,0,0,0,6.84,4.63ZM8.15,9.06a1.83,1.83,0,0,1-2.61,0,1.88,1.88,0,0,1,0-2.64,1.83,1.83,0,0,1,2.61,0,1.88,1.88,0,0,1,0,2.64Z" transform="translate(0 0)" style="fill:#b2cf07"/><path d="M13.64,12.05h0a2.09,2.09,0,0,1-1.36-.52,1.89,1.89,0,0,1-.56-1.35V8.28H13a.69.69,0,0,0,.62-.69A.66.66,0,0,0,13,6.93H11.71V5.52s0-.69-.64-.73a.68.68,0,0,0-.7.63v4.75a3.09,3.09,0,0,0,3.26,3.11.63.63,0,0,0,.62-.62A.61.61,0,0,0,13.64,12.05Z" transform="translate(0 0)" style="fill:#b2cf07"/></svg>