<svg id="图层_1" data-name="图层 1" xmlns="http://www.w3.org/2000/svg" viewBox="0 0 72 72"><title>icon_loading_number</title><rect width="72" height="72" style="fill:none"/><path d="M16.49,30l-1.92.77a2,2,0,1,1-1.18-3.9l4.51-1.66c1.47-.64,2.82,0,2.82,2.24V45.32c0,2.37-4.22,2.43-4.22,0Z" transform="translate(0 0)" style="fill:#e8e8e8"/><path d="M34.2,35.79c2.94-2.3,2.91-6.91-1.41-6.91A4.5,4.5,0,0,0,29.14,31c-1.28,2-4.64.67-3.36-2.21a7.5,7.5,0,0,1,7-3.94c7.58,0,10.59,7.81,4.51,13.73a40.63,40.63,0,0,1-6.21,4.48c1.41,0,3.1-.19,4.51-.19h3.71c2.46,0,2.78,4.13,0,4.13H26.9a1.9,1.9,0,0,1-1.41-3.36C28.37,40.59,31.09,38.6,34.2,35.79Z" transform="translate(0 0)" style="fill:#e8e8e8"/><path d="M52.8,28.88H47.33c-2.69,0-2.53-4,0-4h9.79a2.1,2.1,0,0,1,1.41,3.68l-5.31,5a6.32,6.32,0,0,1,7,6.21c0,3.94-2.78,7.3-8.64,7.3A7.59,7.59,0,0,1,45,43.66c-1.54-2.27,1.76-4.45,3.49-2.21a4.46,4.46,0,0,0,3.62,1.63c2,0,3.87-.83,3.87-3.36,0-3.33-4.06-2.82-6.27-2.59a2.08,2.08,0,0,1-1.92-3.62Z" transform="translate(0 0)" style="fill:#e8e8e8"/></svg>