<svg id="图层_1" data-name="图层 1" xmlns="http://www.w3.org/2000/svg" viewBox="0 0 18 18"><title>icon_filter_add</title><rect width="18" height="18" style="fill:none"/><path d="M7,13a6,6,0,0,1,4.71-5.84A.38.38,0,0,0,12,7l2.73-3.51a1.45,1.45,0,0,0-1.14-2.34H1.45A1.45,1.45,0,0,0,.31,3.51L6,10.85v5.41a.91.91,0,0,0,1.31.81L8,16.72a.19.19,0,0,0,.07-.29A5.94,5.94,0,0,1,7,13ZM6.78,8.14A.63.63,0,0,1,5.89,8L2.49,3.64a.63.63,0,1,1,1-.78l3.4,4.39A.64.64,0,0,1,6.78,8.14Z" transform="translate(0 0)"/><path d="M13,8a5,5,0,1,0,5,5A5,5,0,0,0,13,8Zm2.69,5.65h-2v2a.65.65,0,0,1-1.3,0v-2h-2a.65.65,0,1,1,0-1.3h2v-2a.65.65,0,0,1,1.3,0v2h2a.65.65,0,1,1,0,1.3Z" transform="translate(0 0)"/></svg>