<svg id="图层_1" data-name="图层 1" xmlns="http://www.w3.org/2000/svg" viewBox="0 0 18 18"><title>icon_removeStarted</title><rect width="18" height="18" transform="translate(18 0) rotate(90)" style="fill:none"/><path d="M3.82,15.1l.23-.23,1.82-1.82,5.57-5.57,1.38-1.38h0l1.25-1.25L15.52,3.4a.65.65,0,1,0-.92-.92L12.81,4.27,11.58,5.5l0,0L9.43,1.16a.48.48,0,0,0-.85,0L6.45,5.46a1.06,1.06,0,0,1-.8.58L.91,6.73a.48.48,0,0,0-.26.81l3.43,3.35a1.06,1.06,0,0,1,.31.94L4.2,12.88l-.26.26L2.48,14.6a.65.65,0,0,0,.92.92l.42-.42Z" transform="translate(0 0)"/><path d="M17.36,7.54a.48.48,0,0,0-.26-.81l-2.67-.39-.25.25L12.36,8.4,6.79,14,5.3,15.46,3.75,17a.47.47,0,0,0,.51,0l4.24-2.23a1.06,1.06,0,0,1,1,0l4.24,2.23a.48.48,0,0,0,.69-.5l-.81-4.73a1.06,1.06,0,0,1,.31-.94Z" transform="translate(0 0)"/></svg>