<svg id="图层_1" data-name="图层 1" xmlns="http://www.w3.org/2000/svg" xmlns:xlink="http://www.w3.org/1999/xlink" viewBox="0 0 18 18"><defs><linearGradient id="未命名的渐变_16" x1="15.35" y1="15.35" x2="11.08" y2="11.08" gradientUnits="userSpaceOnUse"><stop offset="0" stop-color="#f57e02"/><stop offset="1"/></linearGradient></defs><title>icon_logo_GA</title><rect width="18" height="18" style="fill:none"/><path d="M15.5,12.13v2.29a1.08,1.08,0,0,1-1.08,1.08H3.58A1.08,1.08,0,0,1,2.5,14.42V12.13a1.08,1.08,0,0,1,1.08-1.08H14.42a1.08,1.08,0,0,1,1.08,1.08Z" style="fill:#ffc314"/><path d="M11.06,15.5H7.69a1.08,1.08,0,0,1-1.08-1.08V7.69A1.08,1.08,0,0,1,7.69,6.61h3.37V15.5Z" style="fill:#ffc314"/><path d="M14.42,15.5H11.06V3.58A1.08,1.08,0,0,1,12.13,2.5h2.29A1.08,1.08,0,0,1,15.5,3.58V14.42a1.08,1.08,0,0,1-1.08,1.08Z" style="fill:#f57e02"/><path d="M11.06,6.61l2.22,2.22,2.22,2.22v3.37a1.08,1.08,0,0,1-1.08,1.08H11.06V6.61Z" style="opacity:0.06;fill:url(#未命名的渐变_16)"/></svg>