<svg id="图层_1" data-name="图层 1" xmlns="http://www.w3.org/2000/svg" viewBox="0 0 18 18"><title>icon_cooperation</title><rect width="18" height="18" style="fill:none"/><circle cx="8.95" cy="3.42" r="2.42"/><circle cx="14.05" cy="5.19" r="2"/><path d="M15.18,8H14.06a.84.84,0,0,0-.84.84V15.1a.84.84,0,0,0,.84.84h1.13a1.48,1.48,0,0,0,1.47-1.47v-5A1.48,1.48,0,0,0,15.18,8Z" transform="translate(0 0)"/><circle cx="3.95" cy="5.19" r="2"/><path d="M3.94,8H2.82A1.48,1.48,0,0,0,1.35,9.51v5a1.48,1.48,0,0,0,1.47,1.47H3.95a.84.84,0,0,0,.84-.84V8.88A.84.84,0,0,0,3.94,8Z" transform="translate(0 0)"/><rect x="5.87" y="6.95" width="6.25" height="10.05" rx="2.1" ry="2.1"/></svg>