<svg id="图层_1" data-name="图层 1" xmlns="http://www.w3.org/2000/svg" viewBox="0 0 18 18"><title>icon_chart</title><rect width="18" height="18" transform="translate(18 0) rotate(90)" style="fill:none"/><path d="M15,1H3A2,2,0,0,0,1,3V15a2,2,0,0,0,2,2H15a2,2,0,0,0,2-2V3A2,2,0,0,0,15,1ZM5.94,14.64a.6.6,0,0,1-.6.6H3.14a.6.6,0,0,1-.6-.6V6.77a.6.6,0,0,1,.6-.6h2.2a.6.6,0,0,1,.6.6Zm4.76,0a.6.6,0,0,1-.6.6H7.9a.6.6,0,0,1-.6-.6V3.75a.6.6,0,0,1,.6-.6h2.2a.6.6,0,0,1,.6.6Zm4.76,0a.6.6,0,0,1-.6.6h-2.2a.6.6,0,0,1-.6-.6V8.29a.6.6,0,0,1,.6-.6h2.2a.6.6,0,0,1,.6.6Z" transform="translate(0 0)"/></svg>