<svg id="图层_1" data-name="图层 1" xmlns="http://www.w3.org/2000/svg" viewBox="0 0 18 18"><title>btn_twitter</title><rect width="18" height="18" transform="translate(18 0) rotate(90)" style="fill:none"/><g id="_编组_" data-name="&lt;编组&gt;"><g id="_编组_2" data-name="&lt;编组&gt;"><path id="_路径_" data-name="&lt;路径&gt;" d="M5.85,15.91A9.86,9.86,0,0,0,15.77,6c0-.15,0-.3,0-.45A7.1,7.1,0,0,0,17.5,3.73a7,7,0,0,1-2,.55A3.5,3.5,0,0,0,17,2.35a7,7,0,0,1-2.21.85A3.49,3.49,0,0,0,8.87,6.37,9.9,9.9,0,0,1,1.68,2.73,3.49,3.49,0,0,0,2.76,7.39,3.46,3.46,0,0,1,1.18,7s0,0,0,0A3.49,3.49,0,0,0,4,10.41a3.48,3.48,0,0,1-1.58.06A3.49,3.49,0,0,0,5.66,12.9a7,7,0,0,1-4.33,1.49,7.12,7.12,0,0,1-.83,0,9.87,9.87,0,0,0,5.35,1.57" transform="translate(0 0)"/></g></g></svg>