<svg id="图层_1" data-name="图层 1" xmlns="http://www.w3.org/2000/svg" viewBox="0 0 18 18"><title>icon_removeFaborites</title><rect width="18" height="18" style="fill:none"/><circle cx="8.95" cy="3.42" r="2.42"/><path d="M15.18,8H14.06a.84.84,0,0,0-.84.84V15.1a.84.84,0,0,0,.84.84h1.13a1.48,1.48,0,0,0,1.47-1.47v-5A1.48,1.48,0,0,0,15.18,8Z"/><circle cx="3.95" cy="5.19" r="2"/><path d="M15.52,3.39a.65.65,0,0,0-.92-.92l-.74.74A2,2,0,0,0,12.08,5l-.75.75L10.11,7H8a2.11,2.11,0,0,0-2.1,2.1V11.2l-.12.12-1,1V8.88A.84.84,0,0,0,3.94,8H2.82A1.48,1.48,0,0,0,1.35,9.51v5a1.46,1.46,0,0,0,.33.92h0a.65.65,0,0,0,.92.92l2.59-2.59,1.49-1.49,5.57-5.57,1.82-1.82Z"/><path d="M13.61,7.14A2,2,0,0,0,16,4.75l-1,1Z"/><path d="M7.59,13.16,6.11,14.64l-.23.23v0A2.11,2.11,0,0,0,8,17h2a2.11,2.11,0,0,0,2.1-2.1V9.05a2.08,2.08,0,0,0,0-.39Z"/></svg>