<svg id="图层_1" data-name="图层 1" xmlns="http://www.w3.org/2000/svg" viewBox="0 0 18 18"><title>icon_file</title><rect width="18" height="18" style="fill:none"/><path d="M13,5.85h2.85L11,1V3.85A2,2,0,0,0,13,5.85Z"/><path d="M9.85,3.85V1H4.15a2,2,0,0,0-2,2V15a2,2,0,0,0,2,2h9.7a2,2,0,0,0,2-2V7H13A3.15,3.15,0,0,1,9.85,3.85Zm-4.5,3.7H8.66a.65.65,0,0,1,0,1.3H5.34a.65.65,0,0,1,0-1.3Zm7.31,7.3H5.34a.65.65,0,0,1,0-1.3h7.31a.65.65,0,0,1,0,1.3Zm.65-3.65a.65.65,0,0,1-.65.65H5.34a.65.65,0,0,1,0-1.3h7.31A.65.65,0,0,1,13.31,11.2Z"/></svg>