<svg id="图层_1" data-name="图层 1" xmlns="http://www.w3.org/2000/svg" viewBox="0 0 72 72"><title>icon_loading_donut</title><rect width="72" height="72" style="fill:none"/><path d="M36,52a15.92,15.92,0,0,1-11.36-4.75,1,1,0,0,0-1.34-.09L18.61,51a1,1,0,0,0-.11,1.42A23.92,23.92,0,0,0,36,60h.43a1,1,0,0,0,1-1.07l-.61-7C36.52,52,36.26,52,36,52Z" style="fill:#e8e8e8"/><path d="M36,20A16,16,0,0,1,51.42,31.74a1,1,0,0,0,1.12.73l6-1.05a1,1,0,0,0,.79-1.18,24,24,0,0,0-31-17,1,1,0,0,0-.57,1.32l2.37,5.59a1,1,0,0,0,1.21.54A15.81,15.81,0,0,1,36,20Z" style="fill:#e8e8e8"/><path d="M20,36a16,16,0,0,1,8.55-14.14A1,1,0,0,0,29,20.6L26.65,15a1,1,0,0,0-1.32-.5,24,24,0,0,0-8.89,35.39,1,1,0,0,0,1.41.17l4.7-3.84a1,1,0,0,0,.18-1.32A15.88,15.88,0,0,1,20,36Z" style="fill:#e8e8e8"/><path d="M58.72,32.6l-6,1.06a1,1,0,0,0-.8,1c0,.43.06.86.06,1.3A16,16,0,0,1,38.89,51.73a1,1,0,0,0-.83,1.05l.52,6a1,1,0,0,0,1.11.89A24,24,0,0,0,59.86,33.44,1,1,0,0,0,58.72,32.6Z" style="fill:#e8e8e8"/><path d="M1,49.19" style="fill:none;stroke:#e8e8e8;stroke-miterlimit:10"/></svg>