<svg id="图层_1" data-name="图层 1" xmlns="http://www.w3.org/2000/svg" viewBox="0 0 24 24"><title>icon_add_chart</title><rect width="24" height="24" transform="translate(24 0) rotate(90)" style="fill:none"/><path d="M15.06,14.47V11.29a.6.6,0,0,1,.6-.6h2.2a.6.6,0,0,1,.6.6V13L19,13a6,6,0,0,1,1,.09V6a2,2,0,0,0-2-2H6A2,2,0,0,0,4,6V18a2,2,0,0,0,2,2h7.09a5.53,5.53,0,0,1,0-1.76H10.9a.6.6,0,0,1-.6-.6V6.75a.6.6,0,0,1,.6-.6h2.2a.6.6,0,0,1,.6.6v9.43A6,6,0,0,1,15.06,14.47ZM8.94,17.64a.6.6,0,0,1-.6.6H6.14a.6.6,0,0,1-.6-.6V9.77a.6.6,0,0,1,.6-.6h2.2a.6.6,0,0,1,.6.6Z" transform="translate(0 0)"/><path d="M19,14a5,5,0,1,0,5,5A5,5,0,0,0,19,14Zm2.69,5.65h-2v2a.65.65,0,0,1-1.3,0v-2h-2a.65.65,0,1,1,0-1.3h2v-2a.65.65,0,0,1,1.3,0v2h2a.65.65,0,1,1,0,1.3Z" transform="translate(0 0)"/></svg>